<?xml version="1.0" encoding="utf-8"?>
<!-- created with bpmn-js / http://bpmn.io -->
<!DOCTYPE svg PUBLIC "-//W3C//DTD SVG 1.1//EN" "http://www.w3.org/Graphics/SVG/1.1/DTD/svg11.dtd">
<svg xmlns="http://www.w3.org/2000/svg" xmlns:xlink="http://www.w3.org/1999/xlink" width="656" height="663" viewBox="868 24 656 663" version="1.1"><defs><marker viewBox="0 0 20 20" markerWidth="10" markerHeight="10" orient="auto" refX="11" refY="10" id="markerSiui7b3pb9"><path d="M 1 5 L 11 10 L 1 15 Z" style="stroke-width: 1; stroke-linecap: round; stroke-dasharray: 10000, 1;" fill="#000000"/></marker><marker viewBox="0 0 20 20" markerWidth="20" markerHeight="20" orient="auto" refX="6" refY="6" id="markerSiui7b3pbb"><circle cx="6" cy="6" r="3.5" style="stroke-width: 1; stroke-linecap: round; stroke-dasharray: 10000, 1;" fill="#ffffff" stroke="#000000"/></marker><marker viewBox="0 0 20 20" markerWidth="20" markerHeight="20" orient="auto" refX="8.5" refY="5" id="markerSiui7b3pbd"><path d="m 1 5 l 0 -3 l 7 3 l -7 3 z" style="stroke-width: 1; stroke-linecap: butt; stroke-dasharray: 10000, 1;" fill="#ffffff" stroke="#000000"/></marker><marker viewBox="0 0 20 20" markerWidth="10" markerHeight="10" orient="auto" refX="1" refY="10" id="markerSiui7b3pbf"><path d="M 11 5 L 1 10 L 11 15" style="stroke-width: 1.5; stroke-linecap: round; stroke-dasharray: 10000, 1;" fill="none" stroke="#000000"/></marker><marker viewBox="0 0 20 20" markerWidth="10" markerHeight="10" orient="auto" refX="12" refY="10" id="markerSiui7b3pbh"><path d="M 1 5 L 11 10 L 1 15" style="stroke-width: 1.5; stroke-linecap: round; stroke-dasharray: 10000, 1;" fill="none" stroke="#000000"/></marker><marker viewBox="0 0 20 20" markerWidth="10" markerHeight="10" orient="auto" refX="-1" refY="10" id="markerSiui7b3pbj"><path d="M 0 10 L 8 6 L 16 10 L 8 14 Z" style="stroke-width: 1; stroke-linecap: round; stroke-dasharray: 10000, 1;" fill="#ffffff" stroke="#000000"/></marker><marker viewBox="0 0 20 20" markerWidth="10" markerHeight="10" orient="auto" refX="-5" refY="10" id="markerSiui7b3pbl"><path d="M 1 4 L 5 16" style="stroke-width: 1; stroke-linecap: round; stroke-dasharray: 10000, 1;" fill="#000000" stroke="#000000"/></marker></defs><g class="djs-group" xmlns="http://www.w3.org/2000/svg"><g class="djs-element djs-shape" data-element-id="Participant_0yz4kir" transform="matrix(1,0,0,1,874,30)" style="display: block;"><g class="djs-visual"><rect x="0" y="0" width="644" height="651" rx="0" ry="0" style="stroke-width: 2; fill-opacity: 0.95;" stroke="#000000" fill="#ffffff"></rect><polyline points="30,0 30,651 " style="stroke-width: 2;" fill="none" stroke="#000000"></polyline><text style="font-family: Arial,sans-serif; font-size: 12px;" class=" djs-label" transform="matrix(0,-1,1,0,0,651)"><tspan x="250.5" y="18.5">Colaborar com a simulação</tspan><tspan x="325.5" y="18.5"></tspan></text></g><rect x="0" y="0" width="644" height="651" style="stroke-opacity: 0; stroke-width: 15;" fill="none" stroke="#ffffff" class="djs-hit"></rect><rect x="-6" y="-6" width="656" height="663" style="" fill="none" class="djs-outline"></rect></g><g class="djs-children"><g class="djs-group"><g class="djs-element djs-shape hover" data-element-id="Lane_1bqwx5j" transform="matrix(1,0,0,1,904,30)" style="display: block;"><g class="djs-visual"><rect x="0" y="0" width="614" height="170" rx="0" ry="0" style="stroke-width: 2;" stroke="#000000" fill="none"></rect><text style="font-family: Arial,sans-serif; font-size: 12px;" class=" djs-label" transform="matrix(0,-1,1,0,0,170)"><tspan x="63.5" y="18.5">Usuário</tspan></text></g><rect x="0" y="0" width="614" height="170" style="stroke-opacity: 0; stroke-width: 15;" fill="none" stroke="#ffffff" class="djs-hit"></rect><rect x="-6" y="-6" width="626" height="182" style="" fill="none" class="djs-outline"></rect></g></g><g class="djs-group"><g class="djs-element djs-shape" data-element-id="Lane_0cahcng" transform="matrix(1,0,0,1,904,200)" style="display: block;"><g class="djs-visual"><rect x="0" y="0" width="614" height="121" rx="0" ry="0" style="stroke-width: 2;" stroke="#000000" fill="none"></rect><text style="font-family: Arial,sans-serif; font-size: 12px;" class=" djs-label" transform="matrix(0,-1,1,0,0,121)"><tspan x="25" y="18.5">Inteface Web</tspan><tspan x="60.5" y="18.5"></tspan></text></g><rect x="0" y="0" width="614" height="121" style="stroke-opacity: 0; stroke-width: 15;" fill="none" stroke="#ffffff" class="djs-hit"></rect><rect x="-6" y="-6" width="626" height="133" style="" fill="none" class="djs-outline"></rect></g></g><g class="djs-group"><g class="djs-element djs-shape" data-element-id="Lane_0ixuebz" transform="matrix(1,0,0,1,904,321)" style="display: block;"><g class="djs-visual"><rect x="0" y="0" width="614" height="120" rx="0" ry="0" style="stroke-width: 2;" stroke="#000000" fill="none"></rect><text style="font-family: Arial,sans-serif; font-size: 12px;" class=" djs-label" transform="matrix(0,-1,1,0,0,120)"><tspan x="37" y="18.5">Servidor</tspan></text></g><rect x="0" y="0" width="614" height="120" style="stroke-opacity: 0; stroke-width: 15;" fill="none" stroke="#ffffff" class="djs-hit"></rect><rect x="-6" y="-6" width="626" height="132" style="" fill="none" class="djs-outline"></rect></g></g><g class="djs-group"><g class="djs-element djs-shape" data-element-id="Lane_1he5ju7" transform="matrix(1,0,0,1,904,441)" style="display: block;"><g class="djs-visual"><rect x="0" y="0" width="614" height="120" rx="0" ry="0" style="stroke-width: 2;" stroke="#000000" fill="none"></rect><text style="font-family: Arial,sans-serif; font-size: 12px;" class=" djs-label" transform="matrix(0,-1,1,0,0,120)"><tspan x="42" y="18.5">Broker</tspan></text></g><rect x="0" y="0" width="614" height="120" style="stroke-opacity: 0; stroke-width: 15;" fill="none" stroke="#ffffff" class="djs-hit"></rect><rect x="-6" y="-6" width="626" height="132" style="" fill="none" class="djs-outline"></rect></g></g><g class="djs-group"><g class="djs-element djs-shape" data-element-id="Lane_1w095n3" transform="matrix(1,0,0,1,904,561)" style="display: block;"><g class="djs-visual"><rect x="0" y="0" width="614" height="120" rx="0" ry="0" style="stroke-width: 2;" stroke="#000000" fill="none"></rect><text style="font-family: Arial,sans-serif; font-size: 12px;" class=" djs-label" transform="matrix(0,-1,1,0,0,120)"><tspan x="47.5" y="18.5">Host</tspan></text></g><rect x="0" y="0" width="614" height="120" style="stroke-opacity: 0; stroke-width: 15;" fill="none" stroke="#ffffff" class="djs-hit"></rect><rect x="-6" y="-6" width="626" height="132" style="" fill="none" class="djs-outline"></rect></g></g><g class="djs-group"><g class="djs-element djs-shape" data-element-id="Task_0q91r4m" transform="matrix(1,0,0,1,1060.52,72.056)" style="display: block;"><g class="djs-visual"><rect x="0" y="0" width="100" height="80" rx="10" ry="10" style="stroke-width: 2;" stroke="#000000" fill="#ffffff"></rect><text style="font-family: Arial,sans-serif; font-size: 12px;" class=" djs-label"><tspan x="7.5" y="22.5">Acessar página</tspan><tspan x="43" y="36.5">de </tspan><tspan x="9" y="50.5">gerenciamento </tspan><tspan x="25.5" y="64.5">das VMS </tspan></text></g><rect x="0" y="0" width="100" height="80" style="stroke-opacity: 0; stroke-width: 15;" fill="none" stroke="#ffffff" class="djs-hit"></rect><rect x="-6" y="-6" width="112" height="92" style="" fill="none" class="djs-outline"></rect></g></g><g class="djs-group"><g class="djs-element djs-shape" data-element-id="Task_0i7llz8" transform="matrix(1,0,0,1,1061,337.0815)" style="display: block;"><g class="djs-visual"><rect x="0" y="0" width="100" height="80" rx="10" ry="10" style="stroke-width: 2;" stroke="#000000" fill="#ffffff"></rect><text style="font-family: Arial,sans-serif; font-size: 12px;" class=" djs-label"><tspan x="15.5" y="29.5">Selecionar a </tspan><tspan x="27" y="43.5">VM para </tspan><tspan x="16" y="57.5">colaboração </tspan></text></g><rect x="0" y="0" width="100" height="80" style="stroke-opacity: 0; stroke-width: 15;" fill="none" stroke="#ffffff" class="djs-hit"></rect><rect x="-6" y="-6" width="112" height="92" style="" fill="none" class="djs-outline"></rect></g></g><g class="djs-group"><g class="djs-element djs-shape" data-element-id="Task_1crpg3q" transform="matrix(1,0,0,1,1061,458.928)" style="display: block;"><g class="djs-visual"><rect x="0" y="0" width="100" height="80" rx="10" ry="10" style="stroke-width: 2;" stroke="#000000" fill="#ffffff"></rect><text style="font-family: Arial,sans-serif; font-size: 12px;" class=" djs-label"><tspan x="32.5" y="29.5">Enviar </tspan><tspan x="8" y="43.5">informações da </tspan><tspan x="41" y="57.5">VM </tspan></text></g><rect x="0" y="0" width="100" height="80" style="stroke-opacity: 0; stroke-width: 15;" fill="none" stroke="#ffffff" class="djs-hit"></rect><rect x="-6" y="-6" width="112" height="92" style="" fill="none" class="djs-outline"></rect></g></g><g class="djs-group"><g class="djs-element djs-shape" data-element-id="Task_09ou822" transform="matrix(1,0,0,1,1061,574.543)" style="display: block;"><g class="djs-visual"><rect x="0" y="0" width="100" height="80" rx="10" ry="10" style="stroke-width: 2;" stroke="#000000" fill="#ffffff"></rect><text style="font-family: Arial,sans-serif; font-size: 12px;" class=" djs-label"><tspan x="11" y="29.5">Associar a VM </tspan><tspan x="22.5" y="43.5">com ID do </tspan><tspan x="29.5" y="57.5">usuário </tspan></text></g><rect x="0" y="0" width="100" height="80" style="stroke-opacity: 0; stroke-width: 15;" fill="none" stroke="#ffffff" class="djs-hit"></rect><rect x="-6" y="-6" width="112" height="92" style="" fill="none" class="djs-outline"></rect></g></g><g class="djs-group"><g class="djs-element djs-shape" transform="matrix(1,0,0,1,1217,239)" style="display: block;" data-element-id="IntermediateThrowEvent_1d3qx20"><g class="djs-visual"><circle cx="18" cy="18" r="18" style="stroke-width: 1;" stroke="#000000" fill="#ffffff"></circle><circle cx="18" cy="18" r="15" style="stroke-width: 1;" stroke="#000000" fill="none"></circle><path d="m 8.459999999999999,11.34 l 0,12.6 l 18.900000000000002,0 l 0,-12.6 z l 9.450000000000001,5.4 l 9.450000000000001,-5.4" style="stroke-width: 1;" fill="#000000" stroke="#ffffff"></path></g><rect x="0" y="0" width="36" height="36" style="stroke-opacity: 0; stroke-width: 15;" fill="none" stroke="#ffffff" class="djs-hit"></rect><rect x="-6" y="-6" width="48" height="48" style="" fill="none" class="djs-outline"></rect></g></g><g class="djs-group"><g class="djs-element djs-shape" data-element-id="DataStoreReference_09huhnb" transform="matrix(1,0,0,1,1394.737,352)" style="display: block;"><g class="djs-visual"><path d="m  0,6.65 l  0,36.885245901639344 c  1.639344262295082,8.196721311475411 47.540983606557376,8.196721311475411  49.18032786885246,0 l  0,-36.885245901639344 c -1.639344262295082,-8.196721311475411 -47.540983606557376,-8.196721311475411 -49.18032786885246,0c  1.639344262295082,8.196721311475411 47.540983606557376,8.196721311475411  49.18032786885246,0 m  -49.18032786885246,5.737704918032787c  1.639344262295082,8.196721311475411 47.540983606557376,8.196721311475411 49.18032786885246,0m  -49.18032786885246,5.737704918032787c  1.639344262295082,8.196721311475411 47.540983606557376,8.196721311475411  49.18032786885246,0" style="stroke-width: 2;" fill="#ffffff" stroke="#000000"></path></g><rect x="0" y="0" width="50" height="50" style="stroke-opacity: 0; stroke-width: 15;" fill="none" stroke="#ffffff" class="djs-hit"></rect><rect x="-6" y="-6" width="62" height="62" style="" fill="none" class="djs-outline"></rect></g></g><g class="djs-group"><g class="djs-element djs-shape" data-element-id="Task_10j2x8d" transform="matrix(1,0,0,1,1339.737,217)" style="display: block;"><g class="djs-visual"><rect x="0" y="0" width="100" height="80" rx="10" ry="10" style="stroke-width: 2;" stroke="#000000" fill="#ffffff"></rect><text style="font-family: Arial,sans-serif; font-size: 12px;" class=" djs-label"><tspan x="6.5" y="29.5">Inserir os dados</tspan><tspan x="22" y="43.5">na lista de </tspan><tspan x="10.5" y="57.5">colaboradores </tspan></text></g><rect x="0" y="0" width="100" height="80" style="stroke-opacity: 0; stroke-width: 15;" fill="none" stroke="#ffffff" class="djs-hit"></rect><rect x="-6" y="-6" width="112" height="92" style="" fill="none" class="djs-outline"></rect></g></g><g class="djs-group"><g class="djs-element djs-shape" data-element-id="Task_1ucq5ky" transform="matrix(1,0,0,1,1340,72)" style="display: block;"><g class="djs-visual"><rect x="0" y="0" width="100" height="80" rx="10" ry="10" style="stroke-width: 2;" stroke="#000000" fill="#ffffff"></rect><text style="font-family: Arial,sans-serif; font-size: 12px;" class=" djs-label"><tspan x="20" y="29.5">Apresentar </tspan><tspan x="13" y="43.5">resutaldos ao </tspan><tspan x="29.5" y="57.5">usuário </tspan></text></g><rect x="0" y="0" width="100" height="80" style="stroke-opacity: 0; stroke-width: 15;" fill="none" stroke="#ffffff" class="djs-hit"></rect><rect x="-6" y="-6" width="112" height="92" style="" fill="none" class="djs-outline"></rect></g></g><g class="djs-group"><g class="djs-element djs-shape selected hover" data-element-id="StartEvent_1hmtlah" transform="matrix(1,0,0,1,953.4429,61.8347)" style="display: block;"><g class="djs-visual"><circle cx="18" cy="18" r="18" style="stroke-width: 2;" stroke="#000000" fill="#ffffff"></circle></g><rect x="0" y="0" width="36" height="36" style="stroke-opacity: 0; stroke-width: 15;" fill="none" stroke="#ffffff" class="djs-hit"></rect><rect x="-6" y="-6" width="48" height="48" style="" fill="none" class="djs-outline"></rect></g></g><g class="djs-group"><g class="djs-element djs-connection" data-element-id="SequenceFlow_11xp3gv" style="display: block;"><g class="djs-visual"><path d="m  989,80L1025,80 L1025,112 L1061,112 " style="stroke-width: 2; stroke-linejoin: round; marker-end: url(&quot;#markerSiui7b3pb9&quot;);" fill="none" stroke="#000000"></path></g><polyline points="989,80 1025,80 1025,112 1061,112 " style="stroke-opacity: 0; stroke-width: 15;" fill="none" stroke="#ffffff" class="djs-hit"></polyline><rect x="983" y="74" width="84" height="44" style="" fill="none" class="djs-outline"></rect></g></g><g class="djs-group"><g class="djs-element djs-connection" data-element-id="SequenceFlow_1hozdlo" style="display: block;"><g class="djs-visual"><path d="m  1111,152L1111,337 " style="stroke-width: 2; stroke-linejoin: round; marker-end: url(&quot;#markerSiui7b3pb9&quot;);" fill="none" stroke="#000000"></path></g><polyline points="1111,152 1111,337 " style="stroke-opacity: 0; stroke-width: 15;" fill="none" stroke="#ffffff" class="djs-hit"></polyline><rect x="1105" y="146" width="12" height="197" style="" fill="none" class="djs-outline"></rect></g></g><g class="djs-group"><g class="djs-element djs-shape" data-element-id="SequenceFlow_1hozdlo_label" transform="matrix(1,0,0,1,1126,244.5)" style="display: none;"><g class="djs-visual"><text style="font-family: Arial,sans-serif; font-size: 11px;" class=" djs-label" transform="matrix(1,0,0,1,0,0)"><tspan x="45" y="0"></tspan></text></g><rect x="0" y="0" width="0" height="0" style="stroke-opacity: 0; stroke-width: 15;" fill="none" stroke="#ffffff" class="djs-hit"></rect><rect x="-6" y="-6" width="12" height="12" style="" fill="none" class="djs-outline"></rect></g></g><g class="djs-group"><g class="djs-element djs-connection" data-element-id="SequenceFlow_1wa5jje" style="display: block;"><g class="djs-visual"><path d="m  1111,417L1111,459 " style="stroke-width: 2; stroke-linejoin: round; marker-end: url(&quot;#markerSiui7b3pb9&quot;);" fill="none" stroke="#000000"></path></g><polyline points="1111,417 1111,459 " style="stroke-opacity: 0; stroke-width: 15;" fill="none" stroke="#ffffff" class="djs-hit"></polyline><rect x="1105" y="411" width="12" height="54" style="" fill="none" class="djs-outline"></rect></g></g><g class="djs-group"><g class="djs-element djs-shape" data-element-id="SequenceFlow_1wa5jje_label" transform="matrix(1,0,0,1,1126,428)" style="display: none;"><g class="djs-visual"><text style="font-family: Arial,sans-serif; font-size: 11px;" class=" djs-label" transform="matrix(1,0,0,1,0,0)"><tspan x="45" y="0"></tspan></text></g><rect x="0" y="0" width="0" height="0" style="stroke-opacity: 0; stroke-width: 15;" fill="none" stroke="#ffffff" class="djs-hit"></rect><rect x="-6" y="-6" width="12" height="12" style="" fill="none" class="djs-outline"></rect></g></g><g class="djs-group"><g class="djs-element djs-connection" data-element-id="SequenceFlow_1sicl52" style="display: block;"><g class="djs-visual"><path d="m  1111,539L1111,575 " style="stroke-width: 2; stroke-linejoin: round; marker-end: url(&quot;#markerSiui7b3pb9&quot;);" fill="none" stroke="#000000"></path></g><polyline points="1111,539 1111,575 " style="stroke-opacity: 0; stroke-width: 15;" fill="none" stroke="#ffffff" class="djs-hit"></polyline><rect x="1105" y="533" width="12" height="48" style="" fill="none" class="djs-outline"></rect></g></g><g class="djs-group"><g class="djs-element djs-shape" data-element-id="SequenceFlow_1sicl52_label" transform="matrix(1,0,0,1,1126,547)" style="display: none;"><g class="djs-visual"><text style="font-family: Arial,sans-serif; font-size: 11px;" class=" djs-label" transform="matrix(1,0,0,1,0,0)"><tspan x="45" y="0"></tspan></text></g><rect x="0" y="0" width="0" height="0" style="stroke-opacity: 0; stroke-width: 15;" fill="none" stroke="#ffffff" class="djs-hit"></rect><rect x="-6" y="-6" width="12" height="12" style="" fill="none" class="djs-outline"></rect></g></g><g class="djs-group"><g class="djs-element djs-connection" data-element-id="SequenceFlow_0h6wiec" style="display: block;"><g class="djs-visual"><path d="m  1161,615L1235,615 L1235,275 " style="stroke-width: 2; stroke-linejoin: round; marker-end: url(&quot;#markerSiui7b3pb9&quot;);" fill="none" stroke="#000000"></path></g><polyline points="1161,615 1235,615 1235,275 " style="stroke-opacity: 0; stroke-width: 15;" fill="none" stroke="#ffffff" class="djs-hit"></polyline><rect x="1155" y="269" width="86" height="352" style="" fill="none" class="djs-outline"></rect></g></g><g class="djs-group"><g class="djs-element djs-shape" data-element-id="SequenceFlow_0h6wiec_label" transform="matrix(1,0,0,1,1198,600)" style="display: none;"><g class="djs-visual"><text style="font-family: Arial,sans-serif; font-size: 11px;" class=" djs-label" transform="matrix(1,0,0,1,0,0)"><tspan x="45" y="0"></tspan></text></g><rect x="0" y="0" width="0" height="0" style="stroke-opacity: 0; stroke-width: 15;" fill="none" stroke="#ffffff" class="djs-hit"></rect><rect x="-6" y="-6" width="12" height="12" style="" fill="none" class="djs-outline"></rect></g></g><g class="djs-group"><g class="djs-element djs-shape" data-element-id="IntermediateThrowEvent_1cw8ctv_label" transform="matrix(1,0,0,1,1194,208.543)" style="display: block;"><g class="djs-visual"><text style="font-family: Arial,sans-serif; font-size: 11px;" class=" djs-label" transform="matrix(1,0,0,1,-5,0)"><tspan x="5" y="12">Colaborada com </tspan><tspan x="24" y="24">sucesso </tspan></text></g><rect x="0" y="0" width="82" height="25" style="stroke-opacity: 0; stroke-width: 15;" fill="none" stroke="#ffffff" class="djs-hit"></rect><rect x="-6" y="-6" width="94" height="37" style="" fill="none" class="djs-outline"></rect></g></g><g class="djs-group"><g class="djs-element djs-shape" data-element-id="DataStoreReference_09huhnb_label" transform="matrix(1,0,0,1,1384,322)" style="display: block;"><g class="djs-visual"><text style="font-family: Arial,sans-serif; font-size: 11px;" class=" djs-label" transform="matrix(1,0,0,1,-10.5,0)"><tspan x="10.5" y="12">Armazenar os </tspan><tspan x="30" y="24">dados </tspan></text></g><rect x="0" y="0" width="72" height="24" style="stroke-opacity: 0; stroke-width: 15;" fill="none" stroke="#ffffff" class="djs-hit"></rect><rect x="-6" y="-6" width="84" height="36" style="" fill="none" class="djs-outline"></rect></g></g><g class="djs-group"><g class="djs-element djs-connection" data-element-id="SequenceFlow_1i72l26" style="display: block;"><g class="djs-visual"><path d="m  1253,257L1340,257 " style="stroke-width: 2; stroke-linejoin: round; marker-end: url(&quot;#markerSiui7b3pb9&quot;);" fill="none" stroke="#000000"></path></g><polyline points="1253,257 1340,257 " style="stroke-opacity: 0; stroke-width: 15;" fill="none" stroke="#ffffff" class="djs-hit"></polyline><rect x="1247" y="251" width="99" height="12" style="" fill="none" class="djs-outline"></rect></g></g><g class="djs-group"><g class="djs-element djs-shape" data-element-id="SequenceFlow_1i72l26_label" transform="matrix(1,0,0,1,1297,232)" style="display: none;"><g class="djs-visual"><text style="font-family: Arial,sans-serif; font-size: 11px;" class=" djs-label" transform="matrix(1,0,0,1,0,0)"><tspan x="45" y="0"></tspan></text></g><rect x="0" y="0" width="0" height="0" style="stroke-opacity: 0; stroke-width: 15;" fill="none" stroke="#ffffff" class="djs-hit"></rect><rect x="-6" y="-6" width="12" height="12" style="" fill="none" class="djs-outline"></rect></g></g><g class="djs-group"><g class="djs-element djs-connection" data-element-id="SequenceFlow_10uema1" style="display: block;"><g class="djs-visual"><path d="m  1390,217L1390,152 " style="stroke-width: 2; stroke-linejoin: round; marker-end: url(&quot;#markerSiui7b3pb9&quot;);" fill="none" stroke="#000000"></path></g><polyline points="1390,217 1390,152 " style="stroke-opacity: 0; stroke-width: 15;" fill="none" stroke="#ffffff" class="djs-hit"></polyline><rect x="1384" y="146" width="12" height="77" style="" fill="none" class="djs-outline"></rect></g></g><g class="djs-group"><g class="djs-element djs-shape" data-element-id="SequenceFlow_10uema1_label" transform="matrix(1,0,0,1,1405,174.5)" style="display: none;"><g class="djs-visual"><text style="font-family: Arial,sans-serif; font-size: 11px;" class=" djs-label" transform="matrix(1,0,0,1,0,0)"><tspan x="45" y="0"></tspan></text></g><rect x="0" y="0" width="0" height="0" style="stroke-opacity: 0; stroke-width: 15;" fill="none" stroke="#ffffff" class="djs-hit"></rect><rect x="-6" y="-6" width="12" height="12" style="" fill="none" class="djs-outline"></rect></g></g><g class="djs-group"><g class="djs-element djs-shape" data-element-id="SequenceFlow_11xp3gv_label" transform="matrix(1,0,0,1,1040,96)" style="display: none;"><g class="djs-visual"><text style="font-family: Arial,sans-serif; font-size: 11px;" class=" djs-label" transform="matrix(1,0,0,1,0,0)"><tspan x="45" y="0"></tspan></text></g><rect x="0" y="0" width="0" height="0" style="stroke-opacity: 0; stroke-width: 15;" fill="none" stroke="#ffffff" class="djs-hit"></rect><rect x="-6" y="-6" width="12" height="12" style="" fill="none" class="djs-outline"></rect></g></g><g class="djs-group"><g class="djs-element djs-shape" data-element-id="StartEvent_1hmtlah_label" transform="matrix(1,0,0,1,941,34.8347)" style="display: block;"><g class="djs-visual"><text style="font-family: Arial,sans-serif; font-size: 11px;" class=" djs-label" transform="matrix(1,0,0,1,-15,0)"><tspan x="27.5" y="12">Efetuar </tspan><tspan x="15" y="24">colaboração </tspan></text></g><rect x="0" y="0" width="60" height="24" style="stroke-opacity: 0; stroke-width: 15;" fill="none" stroke="#ffffff" class="djs-hit"></rect><rect x="-6" y="-6" width="72" height="36" style="" fill="none" class="djs-outline"></rect></g></g></g></g><g class="djs-group" xmlns="http://www.w3.org/2000/svg"><g class="djs-element djs-connection" data-element-id="DataOutputAssociation_0ueckf9" style="display: block;"><g class="djs-visual"><polyline points="1161,615 1415,615 1419,402 " style="stroke-width: 2; stroke-dasharray: 0.5, 5; stroke-linecap: round; stroke-linejoin: round; marker-end: url(&quot;#markerSiui7b3pbh&quot;);" fill="none" stroke="#000000"></polyline></g><polyline points="1161,615 1415,615 1419,402 " style="stroke-opacity: 0; stroke-width: 15;" fill="none" stroke="#ffffff" class="djs-hit"></polyline><rect x="1155" y="396" width="270" height="225" style="" fill="none" class="djs-outline"></rect></g></g></svg>