<?xml version="1.0" encoding="utf-8"?>
<!-- created with bpmn-js / http://bpmn.io -->
<!DOCTYPE svg PUBLIC "-//W3C//DTD SVG 1.1//EN" "http://www.w3.org/Graphics/SVG/1.1/DTD/svg11.dtd">
<svg xmlns="http://www.w3.org/2000/svg" xmlns:xlink="http://www.w3.org/1999/xlink" width="921" height="813" viewBox="721 32 921 813" version="1.1"><defs><marker viewBox="0 0 20 20" markerWidth="10" markerHeight="10" orient="auto" refX="11" refY="10" id="markerSiui7b3pb9"><path d="M 1 5 L 11 10 L 1 15 Z" style="stroke-width: 1; stroke-linecap: round; stroke-dasharray: 10000, 1;" fill="#000000"/></marker><marker viewBox="0 0 20 20" markerWidth="20" markerHeight="20" orient="auto" refX="6" refY="6" id="markerSiui7b3pbb"><circle cx="6" cy="6" r="3.5" style="stroke-width: 1; stroke-linecap: round; stroke-dasharray: 10000, 1;" fill="#ffffff" stroke="#000000"/></marker><marker viewBox="0 0 20 20" markerWidth="20" markerHeight="20" orient="auto" refX="8.5" refY="5" id="markerSiui7b3pbd"><path d="m 1 5 l 0 -3 l 7 3 l -7 3 z" style="stroke-width: 1; stroke-linecap: butt; stroke-dasharray: 10000, 1;" fill="#ffffff" stroke="#000000"/></marker><marker viewBox="0 0 20 20" markerWidth="10" markerHeight="10" orient="auto" refX="1" refY="10" id="markerSiui7b3pbf"><path d="M 11 5 L 1 10 L 11 15" style="stroke-width: 1.5; stroke-linecap: round; stroke-dasharray: 10000, 1;" fill="none" stroke="#000000"/></marker><marker viewBox="0 0 20 20" markerWidth="10" markerHeight="10" orient="auto" refX="12" refY="10" id="markerSiui7b3pbh"><path d="M 1 5 L 11 10 L 1 15" style="stroke-width: 1.5; stroke-linecap: round; stroke-dasharray: 10000, 1;" fill="none" stroke="#000000"/></marker><marker viewBox="0 0 20 20" markerWidth="10" markerHeight="10" orient="auto" refX="-1" refY="10" id="markerSiui7b3pbj"><path d="M 0 10 L 8 6 L 16 10 L 8 14 Z" style="stroke-width: 1; stroke-linecap: round; stroke-dasharray: 10000, 1;" fill="#ffffff" stroke="#000000"/></marker><marker viewBox="0 0 20 20" markerWidth="10" markerHeight="10" orient="auto" refX="-5" refY="10" id="markerSiui7b3pbl"><path d="M 1 4 L 5 16" style="stroke-width: 1; stroke-linecap: round; stroke-dasharray: 10000, 1;" fill="#000000" stroke="#000000"/></marker></defs><g class="djs-group" xmlns="http://www.w3.org/2000/svg"><g class="djs-element djs-shape" data-element-id="Participant_0s1f3rc" transform="matrix(1,0,0,1,727,38)" style="display: block;"><g class="djs-visual"><rect x="0" y="0" width="909" height="801" rx="0" ry="0" style="stroke-width: 2; fill-opacity: 0.95;" stroke="#000000" fill="#ffffff"></rect><polyline points="30,0 30,801 " style="stroke-width: 2;" fill="none" stroke="#000000"></polyline><text style="font-family: Arial,sans-serif; font-size: 12px;" class=" djs-label" transform="matrix(0,-1,1,0,0,801)"><tspan x="342.5" y="18.5">Desassociar uma VM</tspan><tspan x="400.5" y="18.5"></tspan></text></g><rect x="0" y="0" width="909" height="801" style="stroke-opacity: 0; stroke-width: 15;" fill="none" stroke="#ffffff" class="djs-hit"></rect><rect x="-6" y="-6" width="921" height="813" style="" fill="none" class="djs-outline"></rect></g><g class="djs-children"><g class="djs-group"><g class="djs-element djs-shape" data-element-id="Lane_11850vi" transform="matrix(1,0,0,1,757,38)" style="display: block;"><g class="djs-visual"><rect x="0" y="0" width="879" height="182" rx="0" ry="0" style="stroke-width: 2;" stroke="#000000" fill="none"></rect><text style="font-family: Arial,sans-serif; font-size: 12px;" class=" djs-label" transform="matrix(0,-1,1,0,0,182)"><tspan x="69.5" y="18.5">Usuário</tspan></text></g><rect x="0" y="0" width="879" height="182" style="stroke-opacity: 0; stroke-width: 15;" fill="none" stroke="#ffffff" class="djs-hit"></rect><rect x="-6" y="-6" width="891" height="194" style="" fill="none" class="djs-outline"></rect></g></g><g class="djs-group"><g class="djs-element djs-shape" data-element-id="Lane_0ca4ef8" transform="matrix(1,0,0,1,757,220)" style="display: block;"><g class="djs-visual"><rect x="0" y="0" width="879" height="188" rx="0" ry="0" style="stroke-width: 2;" stroke="#000000" fill="none"></rect><text style="font-family: Arial,sans-serif; font-size: 12px;" class=" djs-label" transform="matrix(0,-1,1,0,0,188)"><tspan x="56.5" y="18.5">Interface Web</tspan><tspan x="94" y="18.5"></tspan></text></g><rect x="0" y="0" width="879" height="188" style="stroke-opacity: 0; stroke-width: 15;" fill="none" stroke="#ffffff" class="djs-hit"></rect><rect x="-6" y="-6" width="891" height="200" style="" fill="none" class="djs-outline"></rect></g></g><g class="djs-group"><g class="djs-element djs-shape" data-element-id="Lane_1hv73xs" transform="matrix(1,0,0,1,757,408)" style="display: block;"><g class="djs-visual"><rect x="0" y="0" width="879" height="155" rx="0" ry="0" style="stroke-width: 2;" stroke="#000000" fill="none"></rect><text style="font-family: Arial,sans-serif; font-size: 12px;" class=" djs-label" transform="matrix(0,-1,1,0,0,155)"><tspan x="54.5" y="18.5">Servidor</tspan></text></g><rect x="0" y="0" width="879" height="155" style="stroke-opacity: 0; stroke-width: 15;" fill="none" stroke="#ffffff" class="djs-hit"></rect><rect x="-6" y="-6" width="891" height="167" style="" fill="none" class="djs-outline"></rect></g></g><g class="djs-group"><g class="djs-element djs-shape" data-element-id="Lane_0unoac2" transform="matrix(1,0,0,1,757,563)" style="display: block;"><g class="djs-visual"><rect x="0" y="0" width="879" height="136" rx="0" ry="0" style="stroke-width: 2;" stroke="#000000" fill="none"></rect><text style="font-family: Arial,sans-serif; font-size: 12px;" class=" djs-label" transform="matrix(0,-1,1,0,0,136)"><tspan x="50" y="18.5">Broker</tspan></text></g><rect x="0" y="0" width="879" height="136" style="stroke-opacity: 0; stroke-width: 15;" fill="none" stroke="#ffffff" class="djs-hit"></rect><rect x="-6" y="-6" width="891" height="148" style="" fill="none" class="djs-outline"></rect></g></g><g class="djs-group"><g class="djs-element djs-shape" data-element-id="Lane_07u55co" transform="matrix(1,0,0,1,757,699)" style="display: block;"><g class="djs-visual"><rect x="0" y="0" width="879" height="140" rx="0" ry="0" style="stroke-width: 2;" stroke="#000000" fill="none"></rect><text style="font-family: Arial,sans-serif; font-size: 12px;" class=" djs-label" transform="matrix(0,-1,1,0,0,140)"><tspan x="57.5" y="18.5">Host</tspan></text></g><rect x="0" y="0" width="879" height="140" style="stroke-opacity: 0; stroke-width: 15;" fill="none" stroke="#ffffff" class="djs-hit"></rect><rect x="-6" y="-6" width="891" height="152" style="" fill="none" class="djs-outline"></rect></g></g><g class="djs-group"><g class="djs-element djs-shape" data-element-id="StartEvent_1r4n2zk" transform="matrix(1,0,0,1,852.9753,60.5729)" style="display: block;"><g class="djs-visual"><circle cx="18" cy="18" r="18" style="stroke-width: 2;" stroke="#000000" fill="#ffffff"></circle></g><rect x="0" y="0" width="36" height="36" style="stroke-opacity: 0; stroke-width: 15;" fill="none" stroke="#ffffff" class="djs-hit"></rect><rect x="-6" y="-6" width="48" height="48" style="" fill="none" class="djs-outline"></rect></g></g><g class="djs-group"><g class="djs-element djs-shape" data-element-id="StartEvent_1r4n2zk_label" transform="matrix(1,0,0,1,825,105.5729)" style="display: block;"><g class="djs-visual"><text style="font-family: Arial,sans-serif; font-size: 11px;" class=" djs-label" transform="matrix(1,0,0,1,-2,0)"><tspan x="2" y="12">Desvincular a VM</tspan><tspan x="45" y="12"></tspan></text></g><rect x="0" y="0" width="91" height="13" style="stroke-opacity: 0; stroke-width: 15;" fill="none" stroke="#ffffff" class="djs-hit"></rect><rect x="-6" y="-6" width="103" height="25" style="" fill="none" class="djs-outline"></rect></g></g><g class="djs-group"><g class="djs-element djs-shape" data-element-id="Task_0wzfs4k" transform="matrix(1,0,0,1,993.5445,89.1287)" style="display: block;"><g class="djs-visual"><rect x="0" y="0" width="100" height="80" rx="10" ry="10" style="stroke-width: 2;" stroke="#000000" fill="#ffffff"></rect><text style="font-family: Arial,sans-serif; font-size: 12px;" class=" djs-label"><tspan x="7.5" y="22.5">Acessar página</tspan><tspan x="43" y="36.5">de </tspan><tspan x="9" y="50.5">gerenciamento </tspan><tspan x="25.5" y="64.5">das VMS </tspan></text></g><rect x="0" y="0" width="100" height="80" style="stroke-opacity: 0; stroke-width: 15;" fill="none" stroke="#ffffff" class="djs-hit"></rect><rect x="-6" y="-6" width="112" height="92" style="" fill="none" class="djs-outline"></rect></g></g><g class="djs-group"><g class="djs-element djs-shape" data-element-id="ExclusiveGateway_0cjm2l3" transform="matrix(1,0,0,1,1019,260.4418)" style="display: block;"><g class="djs-visual"><polygon points="25,0,50,25,25,50,0,25" style="stroke-width: 2;" stroke="#000000" fill="#ffffff"></polygon><path d="m 16,15 7.42857142857143,9.714285714285715 -7.42857142857143,9.714285714285715 3.428571428571429,0 5.714285714285715,-7.464228571428572 5.714285714285715,7.464228571428572 3.428571428571429,0 -7.42857142857143,-9.714285714285715 7.42857142857143,-9.714285714285715 -3.428571428571429,0 -5.714285714285715,7.464228571428572 -5.714285714285715,-7.464228571428572 -3.428571428571429,0 z" style="stroke-width: 1;" fill="#000000" stroke="#000000"></path></g><rect x="0" y="0" width="50" height="50" style="stroke-opacity: 0; stroke-width: 15;" fill="none" stroke="#ffffff" class="djs-hit"></rect><rect x="-6" y="-6" width="62" height="62" style="" fill="none" class="djs-outline"></rect></g></g><g class="djs-group"><g class="djs-element djs-shape" data-element-id="Task_036mmc2" transform="matrix(1,0,0,1,994,436.4418)" style="display: block;"><g class="djs-visual"><rect x="0" y="0" width="100" height="80" rx="10" ry="10" style="stroke-width: 2;" stroke="#000000" fill="#ffffff"></rect><text style="font-family: Arial,sans-serif; font-size: 12px;" class=" djs-label"><tspan x="15.5" y="29.5">Selecionar a </tspan><tspan x="26" y="43.5">máquina </tspan><tspan x="24.5" y="57.5">desejada </tspan></text></g><rect x="0" y="0" width="100" height="80" style="stroke-opacity: 0; stroke-width: 15;" fill="none" stroke="#ffffff" class="djs-hit"></rect><rect x="-6" y="-6" width="112" height="92" style="" fill="none" class="djs-outline"></rect></g></g><g class="djs-group"><g class="djs-element djs-shape" data-element-id="Task_0b6nwx6" transform="matrix(1,0,0,1,1231.7726,245)" style="display: block;"><g class="djs-visual"><rect x="0" y="0" width="100" height="80" rx="10" ry="10" style="stroke-width: 2;" stroke="#000000" fill="#ffffff"></rect><text style="font-family: Arial,sans-serif; font-size: 12px;" class=" djs-label"><tspan x="21" y="36.5">Retornar a </tspan><tspan x="13.5" y="50.5">página inicial </tspan></text></g><rect x="0" y="0" width="100" height="80" style="stroke-opacity: 0; stroke-width: 15;" fill="none" stroke="#ffffff" class="djs-hit"></rect><rect x="-6" y="-6" width="112" height="92" style="" fill="none" class="djs-outline"></rect></g></g><g class="djs-group"><g class="djs-element djs-shape" transform="matrix(1,0,0,1,1446,267)" style="display: block;" data-element-id="IntermediateThrowEvent_0h71qga"><g class="djs-visual"><circle cx="18" cy="18" r="18" style="stroke-width: 1;" stroke="#000000" fill="#ffffff"></circle><circle cx="18" cy="18" r="15" style="stroke-width: 1;" stroke="#000000" fill="none"></circle><path d="m 8.459999999999999,11.34 l 0,12.6 l 18.900000000000002,0 l 0,-12.6 z l 9.450000000000001,5.4 l 9.450000000000001,-5.4" style="stroke-width: 1;" fill="#000000" stroke="#ffffff"></path></g><rect x="0" y="0" width="36" height="36" style="stroke-opacity: 0; stroke-width: 15;" fill="none" stroke="#ffffff" class="djs-hit"></rect><rect x="-6" y="-6" width="48" height="48" style="" fill="none" class="djs-outline"></rect></g></g><g class="djs-group"><g class="djs-element djs-shape selected" data-element-id="Task_010s13r" transform="matrix(1,0,0,1,994,725.6091)" style="display: block;"><g class="djs-visual"><rect x="0" y="0" width="100" height="80" rx="10" ry="10" style="stroke-width: 2;" stroke="#000000" fill="#ffffff"></rect><text style="font-family: Arial,sans-serif; font-size: 12px;" class=" djs-label"><tspan x="11" y="29.5">Desassociar a </tspan><tspan x="7.5" y="43.5">VM da conta do </tspan><tspan x="29.5" y="57.5">usuário </tspan></text></g><rect x="0" y="0" width="100" height="80" style="stroke-opacity: 0; stroke-width: 15;" fill="none" stroke="#ffffff" class="djs-hit"></rect><rect x="-6" y="-6" width="112" height="92" style="" fill="none" class="djs-outline"></rect></g></g><g class="djs-group"><g class="djs-element djs-shape" data-element-id="Task_1c767n5" transform="matrix(1,0,0,1,994,586.3398)" style="display: block;"><g class="djs-visual"><rect x="0" y="0" width="100" height="80" rx="10" ry="10" style="stroke-width: 2;" stroke="#000000" fill="#ffffff"></rect><text style="font-family: Arial,sans-serif; font-size: 12px;" class=" djs-label"><tspan x="6" y="29.5">Enviar os dados</tspan><tspan x="43" y="43.5">da </tspan><tspan x="9" y="57.5">desassociação </tspan></text></g><rect x="0" y="0" width="100" height="80" style="stroke-opacity: 0; stroke-width: 15;" fill="none" stroke="#ffffff" class="djs-hit"></rect><rect x="-6" y="-6" width="112" height="92" style="" fill="none" class="djs-outline"></rect></g></g><g class="djs-group"><g class="djs-element djs-connection" data-element-id="SequenceFlow_113hq4q" style="display: block;"><g class="djs-visual"><path d="m  889,79L941,79 L941,129 L994,129 " style="stroke-width: 2; stroke-linejoin: round; marker-end: url(&quot;#markerSiui7b3pb9&quot;);" fill="none" stroke="#000000"></path></g><polyline points="889,79 941,79 941,129 994,129 " style="stroke-opacity: 0; stroke-width: 15;" fill="none" stroke="#ffffff" class="djs-hit"></polyline><rect x="883" y="73" width="117" height="62" style="" fill="none" class="djs-outline"></rect></g></g><g class="djs-group"><g class="djs-element djs-shape" data-element-id="SequenceFlow_113hq4q_label" transform="matrix(1,0,0,1,956,94)" style="display: none;"><g class="djs-visual"><text style="font-family: Arial,sans-serif; font-size: 11px;" class=" djs-label" transform="matrix(1,0,0,1,0,0)"><tspan x="45" y="0"></tspan></text></g><rect x="0" y="0" width="0" height="0" style="stroke-opacity: 0; stroke-width: 15;" fill="none" stroke="#ffffff" class="djs-hit"></rect><rect x="-6" y="-6" width="12" height="12" style="" fill="none" class="djs-outline"></rect></g></g><g class="djs-group"><g class="djs-element djs-shape" data-element-id="ExclusiveGateway_0cjm2l3_label" transform="matrix(1,0,0,1,1044,310.4418)" style="display: block;"><g class="djs-visual"><text style="font-family: Arial,sans-serif; font-size: 11px;" class=" djs-label" transform="matrix(1,0,0,1,0,0)"><tspan x="9.5" y="12">Desassociar a </tspan><tspan x="37" y="24">VM </tspan></text></g><rect x="0" y="0" width="0" height="0" style="stroke-opacity: 0; stroke-width: 15;" fill="none" stroke="#ffffff" class="djs-hit"></rect><rect x="-6" y="-6" width="12" height="12" style="" fill="none" class="djs-outline"></rect></g></g><g class="djs-group"><g class="djs-element djs-connection" data-element-id="SequenceFlow_0xaode0" style="display: block;"><g class="djs-visual"><path d="m  1044,169L1044,260 " style="stroke-width: 2; stroke-linejoin: round; marker-end: url(&quot;#markerSiui7b3pb9&quot;);" fill="none" stroke="#000000"></path></g><polyline points="1044,169 1044,260 " style="stroke-opacity: 0; stroke-width: 15;" fill="none" stroke="#ffffff" class="djs-hit"></polyline><rect x="1038" y="163" width="12" height="103" style="" fill="none" class="djs-outline"></rect></g></g><g class="djs-group"><g class="djs-element djs-shape" data-element-id="SequenceFlow_0xaode0_label" transform="matrix(1,0,0,1,1059,204.5)" style="display: none;"><g class="djs-visual"><text style="font-family: Arial,sans-serif; font-size: 11px;" class=" djs-label" transform="matrix(1,0,0,1,0,0)"><tspan x="45" y="0"></tspan></text></g><rect x="0" y="0" width="0" height="0" style="stroke-opacity: 0; stroke-width: 15;" fill="none" stroke="#ffffff" class="djs-hit"></rect><rect x="-6" y="-6" width="12" height="12" style="" fill="none" class="djs-outline"></rect></g></g><g class="djs-group"><g class="djs-element djs-connection" data-element-id="SequenceFlow_1kipybx" style="display: block;"><g class="djs-visual"><path d="m  1044,310L1044,436 " style="stroke-width: 2; stroke-linejoin: round; marker-end: url(&quot;#markerSiui7b3pb9&quot;);" fill="none" stroke="#000000"></path></g><polyline points="1044,310 1044,436 " style="stroke-opacity: 0; stroke-width: 15;" fill="none" stroke="#ffffff" class="djs-hit"></polyline><rect x="1038" y="304" width="12" height="138" style="" fill="none" class="djs-outline"></rect></g></g><g class="djs-group"><g class="djs-element djs-shape" data-element-id="SequenceFlow_1kipybx_label" transform="matrix(1,0,0,1,1049,362.4781)" style="display: block;"><g class="djs-visual"><text style="font-family: Arial,sans-serif; font-size: 11px;" class=" djs-label" transform="matrix(1,0,0,1,-36,0)"><tspan x="36" y="12">Sim</tspan></text></g><rect x="0" y="0" width="19" height="13" style="stroke-opacity: 0; stroke-width: 15;" fill="none" stroke="#ffffff" class="djs-hit"></rect><rect x="-6" y="-6" width="31" height="25" style="" fill="none" class="djs-outline"></rect></g></g><g class="djs-group"><g class="djs-element djs-connection" data-element-id="SequenceFlow_0mkiuzm" style="display: block;"><g class="djs-visual"><path d="m  1069,285L1232,285 " style="stroke-width: 2; stroke-linejoin: round; marker-end: url(&quot;#markerSiui7b3pb9&quot;);" fill="none" stroke="#000000"></path></g><polyline points="1069,285 1232,285 " style="stroke-opacity: 0; stroke-width: 15;" fill="none" stroke="#ffffff" class="djs-hit"></polyline><rect x="1063" y="279" width="175" height="12" style="" fill="none" class="djs-outline"></rect></g></g><g class="djs-group"><g class="djs-element djs-shape" data-element-id="SequenceFlow_0mkiuzm_label" transform="matrix(1,0,0,1,1134,269)" style="display: block;"><g class="djs-visual"><text style="font-family: Arial,sans-serif; font-size: 11px;" class=" djs-label" transform="matrix(1,0,0,1,-35,0)"><tspan x="35" y="12">Não</tspan></text></g><rect x="0" y="0" width="20" height="13" style="stroke-opacity: 0; stroke-width: 15;" fill="none" stroke="#ffffff" class="djs-hit"></rect><rect x="-6" y="-6" width="32" height="25" style="" fill="none" class="djs-outline"></rect></g></g><g class="djs-group"><g class="djs-element djs-connection" data-element-id="SequenceFlow_1i1e8hw" style="display: block;"><g class="djs-visual"><path d="m  1094,766L1463,766 L1463,303 " style="stroke-width: 2; stroke-linejoin: round; marker-end: url(&quot;#markerSiui7b3pb9&quot;);" fill="none" stroke="#000000"></path></g><polyline points="1094,766 1463,766 1463,303 " style="stroke-opacity: 0; stroke-width: 15;" fill="none" stroke="#ffffff" class="djs-hit"></polyline><rect x="1088" y="297" width="381" height="475" style="" fill="none" class="djs-outline"></rect></g></g><g class="djs-group"><g class="djs-element djs-shape" data-element-id="IntermediateThrowEvent_0yr7hmi_label" transform="matrix(1,0,0,1,1424,236)" style="display: block;"><g class="djs-visual"><text style="font-family: Arial,sans-serif; font-size: 11px;" class=" djs-label" transform="matrix(1,0,0,1,-6.5,0)"><tspan x="6.5" y="12">Confirmação da </tspan><tspan x="8" y="24">desassociação </tspan></text></g><rect x="0" y="0" width="80" height="25" style="stroke-opacity: 0; stroke-width: 15;" fill="none" stroke="#ffffff" class="djs-hit"></rect><rect x="-6" y="-6" width="92" height="37" style="" fill="none" class="djs-outline"></rect></g></g><g class="djs-group"><g class="djs-element djs-shape" data-element-id="SequenceFlow_1i1e8hw_label" transform="matrix(1,0,0,1,1279,751)" style="display: none;"><g class="djs-visual"><text style="font-family: Arial,sans-serif; font-size: 11px;" class=" djs-label" transform="matrix(1,0,0,1,0,0)"><tspan x="45" y="0"></tspan></text></g><rect x="0" y="0" width="0" height="0" style="stroke-opacity: 0; stroke-width: 15;" fill="none" stroke="#ffffff" class="djs-hit"></rect><rect x="-6" y="-6" width="12" height="12" style="" fill="none" class="djs-outline"></rect></g></g><g class="djs-group"><g class="djs-element djs-connection" data-element-id="SequenceFlow_1l90eto" style="display: block;"><g class="djs-visual"><path d="m  1044,516L1044,586 " style="stroke-width: 2; stroke-linejoin: round; marker-end: url(&quot;#markerSiui7b3pb9&quot;);" fill="none" stroke="#000000"></path></g><polyline points="1044,516 1044,586 " style="stroke-opacity: 0; stroke-width: 15;" fill="none" stroke="#ffffff" class="djs-hit"></polyline><rect x="1038" y="510" width="12" height="82" style="" fill="none" class="djs-outline"></rect></g></g><g class="djs-group"><g class="djs-element djs-shape" data-element-id="SequenceFlow_1l90eto_label" transform="matrix(1,0,0,1,1059,541)" style="display: none;"><g class="djs-visual"><text style="font-family: Arial,sans-serif; font-size: 11px;" class=" djs-label" transform="matrix(1,0,0,1,0,0)"><tspan x="45" y="0"></tspan></text></g><rect x="0" y="0" width="0" height="0" style="stroke-opacity: 0; stroke-width: 15;" fill="none" stroke="#ffffff" class="djs-hit"></rect><rect x="-6" y="-6" width="12" height="12" style="" fill="none" class="djs-outline"></rect></g></g><g class="djs-group"><g class="djs-element djs-connection" data-element-id="SequenceFlow_0dzo358" style="display: block;"><g class="djs-visual"><path d="m  1044,666L1044,726 " style="stroke-width: 2; stroke-linejoin: round; marker-end: url(&quot;#markerSiui7b3pb9&quot;);" fill="none" stroke="#000000"></path></g><polyline points="1044,666 1044,726 " style="stroke-opacity: 0; stroke-width: 15;" fill="none" stroke="#ffffff" class="djs-hit"></polyline><rect x="1038" y="660" width="12" height="72" style="" fill="none" class="djs-outline"></rect></g></g><g class="djs-group"><g class="djs-element djs-shape" data-element-id="SequenceFlow_0dzo358_label" transform="matrix(1,0,0,1,1059,686)" style="display: none;"><g class="djs-visual"><text style="font-family: Arial,sans-serif; font-size: 11px;" class=" djs-label" transform="matrix(1,0,0,1,0,0)"><tspan x="45" y="0"></tspan></text></g><rect x="0" y="0" width="0" height="0" style="stroke-opacity: 0; stroke-width: 15;" fill="none" stroke="#ffffff" class="djs-hit"></rect><rect x="-6" y="-6" width="12" height="12" style="" fill="none" class="djs-outline"></rect></g></g></g></g></svg>