<?xml version="1.0" encoding="utf-8"?>
<!-- created with bpmn-js / http://bpmn.io -->
<!DOCTYPE svg PUBLIC "-//W3C//DTD SVG 1.1//EN" "http://www.w3.org/Graphics/SVG/1.1/DTD/svg11.dtd">
<svg xmlns="http://www.w3.org/2000/svg" xmlns:xlink="http://www.w3.org/1999/xlink" width="612" height="742" viewBox="117 76 612 742" version="1.1"><defs><marker viewBox="0 0 20 20" markerWidth="10" markerHeight="10" orient="auto" refX="11" refY="10" id="markerSiui7b3pb9"><path d="M 1 5 L 11 10 L 1 15 Z" style="stroke-width: 1; stroke-linecap: round; stroke-dasharray: 10000, 1;" fill="#000000"/></marker><marker viewBox="0 0 20 20" markerWidth="20" markerHeight="20" orient="auto" refX="6" refY="6" id="markerSiui7b3pbb"><circle cx="6" cy="6" r="3.5" style="stroke-width: 1; stroke-linecap: round; stroke-dasharray: 10000, 1;" fill="#ffffff" stroke="#000000"/></marker><marker viewBox="0 0 20 20" markerWidth="20" markerHeight="20" orient="auto" refX="8.5" refY="5" id="markerSiui7b3pbd"><path d="m 1 5 l 0 -3 l 7 3 l -7 3 z" style="stroke-width: 1; stroke-linecap: butt; stroke-dasharray: 10000, 1;" fill="#ffffff" stroke="#000000"/></marker><marker viewBox="0 0 20 20" markerWidth="10" markerHeight="10" orient="auto" refX="1" refY="10" id="markerSiui7b3pbf"><path d="M 11 5 L 1 10 L 11 15" style="stroke-width: 1.5; stroke-linecap: round; stroke-dasharray: 10000, 1;" fill="none" stroke="#000000"/></marker><marker viewBox="0 0 20 20" markerWidth="10" markerHeight="10" orient="auto" refX="12" refY="10" id="markerSiui7b3pbh"><path d="M 1 5 L 11 10 L 1 15" style="stroke-width: 1.5; stroke-linecap: round; stroke-dasharray: 10000, 1;" fill="none" stroke="#000000"/></marker><marker viewBox="0 0 20 20" markerWidth="10" markerHeight="10" orient="auto" refX="-1" refY="10" id="markerSiui7b3pbj"><path d="M 0 10 L 8 6 L 16 10 L 8 14 Z" style="stroke-width: 1; stroke-linecap: round; stroke-dasharray: 10000, 1;" fill="#ffffff" stroke="#000000"/></marker><marker viewBox="0 0 20 20" markerWidth="10" markerHeight="10" orient="auto" refX="-5" refY="10" id="markerSiui7b3pbl"><path d="M 1 4 L 5 16" style="stroke-width: 1; stroke-linecap: round; stroke-dasharray: 10000, 1;" fill="#000000" stroke="#000000"/></marker></defs><g class="djs-group" xmlns="http://www.w3.org/2000/svg"><g class="djs-element djs-shape" data-element-id="Participant_1apupfi" transform="matrix(1,0,0,1,123,82)" style="display: block;"><g class="djs-visual"><rect x="0" y="0" width="600" height="730" rx="0" ry="0" style="stroke-width: 2; fill-opacity: 0.95;" stroke="#000000" fill="#ffffff"></rect><polyline points="30,0 30,730 " style="stroke-width: 2;" fill="none" stroke="#000000"></polyline><text style="font-family: Arial,sans-serif; font-size: 12px;" class=" djs-label" transform="matrix(0,-1,1,0,0,730)"><tspan x="274" y="18.5">Exploração do Espaço de Projeto</tspan><tspan x="365" y="18.5"></tspan></text></g><rect x="0" y="0" width="600" height="730" style="stroke-opacity: 0; stroke-width: 15;" fill="none" stroke="#ffffff" class="djs-hit"></rect><rect x="-6" y="-6" width="612" height="742" style="" fill="none" class="djs-outline"></rect></g><g class="djs-children"><g class="djs-group"><g class="djs-element djs-shape" data-element-id="Lane_1sg0czk" transform="matrix(1,0,0,1,153,82)" style="display: block;"><g class="djs-visual"><rect x="0" y="0" width="570" height="250" rx="0" ry="0" style="stroke-width: 2;" stroke="#000000" fill="none"></rect><text style="font-family: Arial,sans-serif; font-size: 12px;" class=" djs-label" transform="matrix(0,-1,1,0,0,250)"><tspan x="103.5" y="18.5">Usuário</tspan></text></g><rect x="0" y="0" width="570" height="250" style="stroke-opacity: 0; stroke-width: 15;" fill="none" stroke="#ffffff" class="djs-hit"></rect><rect x="-6" y="-6" width="582" height="262" style="" fill="none" class="djs-outline"></rect></g></g><g class="djs-group"><g class="djs-element djs-shape" data-element-id="Lane_0crnlv7" transform="matrix(1,0,0,1,153,332)" style="display: block;"><g class="djs-visual"><rect x="0" y="0" width="570" height="120" rx="0" ry="0" style="stroke-width: 2;" stroke="#000000" fill="none"></rect><text style="font-family: Arial,sans-serif; font-size: 12px;" class=" djs-label" transform="matrix(0,-1,1,0,0,120)"><tspan x="22.5" y="18.5">Interface Web</tspan><tspan x="60" y="18.5"></tspan></text></g><rect x="0" y="0" width="570" height="120" style="stroke-opacity: 0; stroke-width: 15;" fill="none" stroke="#ffffff" class="djs-hit"></rect><rect x="-6" y="-6" width="582" height="132" style="" fill="none" class="djs-outline"></rect></g></g><g class="djs-group"><g class="djs-element djs-shape" data-element-id="Lane_1pu90ak" transform="matrix(1,0,0,1,153,452)" style="display: block;"><g class="djs-visual"><rect x="0" y="0" width="570" height="120" rx="0" ry="0" style="stroke-width: 2;" stroke="#000000" fill="none"></rect><text style="font-family: Arial,sans-serif; font-size: 12px;" class=" djs-label" transform="matrix(0,-1,1,0,0,120)"><tspan x="37" y="18.5">Servidor</tspan></text></g><rect x="0" y="0" width="570" height="120" style="stroke-opacity: 0; stroke-width: 15;" fill="none" stroke="#ffffff" class="djs-hit"></rect><rect x="-6" y="-6" width="582" height="132" style="" fill="none" class="djs-outline"></rect></g></g><g class="djs-group"><g class="djs-element djs-shape" data-element-id="Lane_00v1xf3" transform="matrix(1,0,0,1,153,572)" style="display: block;"><g class="djs-visual"><rect x="0" y="0" width="570" height="120" rx="0" ry="0" style="stroke-width: 2;" stroke="#000000" fill="none"></rect><text style="font-family: Arial,sans-serif; font-size: 12px;" class=" djs-label" transform="matrix(0,-1,1,0,0,120)"><tspan x="42" y="18.5">Broker</tspan></text></g><rect x="0" y="0" width="570" height="120" style="stroke-opacity: 0; stroke-width: 15;" fill="none" stroke="#ffffff" class="djs-hit"></rect><rect x="-6" y="-6" width="582" height="132" style="" fill="none" class="djs-outline"></rect></g></g><g class="djs-group"><g class="djs-element djs-shape" data-element-id="Lane_1pxk39q" transform="matrix(1,0,0,1,153,692)" style="display: block;"><g class="djs-visual"><rect x="0" y="0" width="570" height="120" rx="0" ry="0" style="stroke-width: 2;" stroke="#000000" fill="none"></rect><text style="font-family: Arial,sans-serif; font-size: 12px;" class=" djs-label" transform="matrix(0,-1,1,0,0,120)"><tspan x="47.5" y="18.5">Host</tspan></text></g><rect x="0" y="0" width="570" height="120" style="stroke-opacity: 0; stroke-width: 15;" fill="none" stroke="#ffffff" class="djs-hit"></rect><rect x="-6" y="-6" width="582" height="132" style="" fill="none" class="djs-outline"></rect></g></g><g class="djs-group"><g class="djs-element djs-shape" data-element-id="StartEvent_0szuqq9" transform="matrix(1,0,0,1,198.926,109.4364)" style="display: block;"><g class="djs-visual"><circle cx="18" cy="18" r="18" style="stroke-width: 2;" stroke="#000000" fill="#ffffff"></circle></g><rect x="0" y="0" width="36" height="36" style="stroke-opacity: 0; stroke-width: 15;" fill="none" stroke="#ffffff" class="djs-hit"></rect><rect x="-6" y="-6" width="48" height="48" style="" fill="none" class="djs-outline"></rect></g></g><g class="djs-group"><g class="djs-element djs-shape" data-element-id="Task_0am08zv" transform="matrix(1,0,0,1,234,713.3117)" style="display: block;"><g class="djs-visual"><rect x="0" y="0" width="100" height="80" rx="10" ry="10" style="stroke-width: 2;" stroke="#000000" fill="#ffffff"></rect><text style="font-family: Arial,sans-serif; font-size: 12px;" class=" djs-label"><tspan x="23" y="36.5">Avaliar as </tspan><tspan x="25.5" y="50.5">soluções </tspan></text></g><rect x="0" y="0" width="100" height="80" style="stroke-opacity: 0; stroke-width: 15;" fill="none" stroke="#ffffff" class="djs-hit"></rect><rect x="-6" y="-6" width="112" height="92" style="" fill="none" class="djs-outline"></rect></g></g><g class="djs-group"><g class="djs-element djs-shape" data-element-id="Task_12gzbtc" transform="matrix(1,0,0,1,234,597.3117)" style="display: block;"><g class="djs-visual"><rect x="0" y="0" width="100" height="80" rx="10" ry="10" style="stroke-width: 2;" stroke="#000000" fill="#ffffff"></rect><text style="font-family: Arial,sans-serif; font-size: 12px;" class=" djs-label"><tspan x="17.5" y="29.5">Distribuir as </tspan><tspan x="25.5" y="43.5">soluções </tspan><tspan x="24.5" y="57.5">possíveis </tspan></text></g><rect x="0" y="0" width="100" height="80" style="stroke-opacity: 0; stroke-width: 15;" fill="none" stroke="#ffffff" class="djs-hit"></rect><rect x="-6" y="-6" width="112" height="92" style="" fill="none" class="djs-outline"></rect></g></g><g class="djs-group"><g class="djs-element djs-shape" data-element-id="Task_0u76wk1" transform="matrix(1,0,0,1,234,475.4657)" style="display: block;"><g class="djs-visual"><rect x="0" y="0" width="100" height="80" rx="10" ry="10" style="stroke-width: 2;" stroke="#000000" fill="#ffffff"></rect><text style="font-family: Arial,sans-serif; font-size: 12px;" class=" djs-label"><tspan x="18.5" y="36.5">Instânciar o </tspan><tspan x="32" y="50.5">Broker </tspan></text></g><rect x="0" y="0" width="100" height="80" style="stroke-opacity: 0; stroke-width: 15;" fill="none" stroke="#ffffff" class="djs-hit"></rect><rect x="-6" y="-6" width="112" height="92" style="" fill="none" class="djs-outline"></rect></g></g><g class="djs-group"><g class="djs-element djs-shape" data-element-id="Task_0q37jdb" transform="matrix(1,0,0,1,234,351.4657)" style="display: block;"><g class="djs-visual"><rect x="0" y="0" width="100" height="80" rx="10" ry="10" style="stroke-width: 2;" stroke="#000000" fill="#ffffff"></rect><text style="font-family: Arial,sans-serif; font-size: 12px;" class=" djs-label"><tspan x="11" y="29.5">Configurar um </tspan><tspan x="21.5" y="43.5">espaço de </tspan><tspan x="31" y="57.5">projeto </tspan></text></g><rect x="0" y="0" width="100" height="80" style="stroke-opacity: 0; stroke-width: 15;" fill="none" stroke="#ffffff" class="djs-hit"></rect><rect x="-6" y="-6" width="112" height="92" style="" fill="none" class="djs-outline"></rect></g></g><g class="djs-group"><g class="djs-element djs-shape" data-element-id="Task_0of1se0" transform="matrix(1,0,0,1,233.926,198.4364)" style="display: block;"><g class="djs-visual"><rect x="0" y="0" width="100" height="80" rx="10" ry="10" style="stroke-width: 2;" stroke="#000000" fill="#ffffff"></rect><text style="font-family: Arial,sans-serif; font-size: 12px;" class=" djs-label"><tspan x="10.5" y="36.5">Definir espaço </tspan><tspan x="22.5" y="50.5">de projeto </tspan></text></g><rect x="0" y="0" width="100" height="80" style="stroke-opacity: 0; stroke-width: 15;" fill="none" stroke="#ffffff" class="djs-hit"></rect><rect x="-6" y="-6" width="112" height="92" style="" fill="none" class="djs-outline"></rect></g></g><g class="djs-group"><g class="djs-element djs-shape" data-element-id="Task_1tkt35d" transform="matrix(1,0,0,1,389.3006,597)" style="display: block;"><g class="djs-visual"><rect x="0" y="0" width="100" height="80" rx="10" ry="10" style="stroke-width: 2;" stroke="#000000" fill="#ffffff"></rect><text style="font-family: Arial,sans-serif; font-size: 12px;" class=" djs-label"><tspan x="7.5" y="36.5">Retornar dados </tspan><tspan x="19.5" y="50.5">ao servidor </tspan></text></g><rect x="0" y="0" width="100" height="80" style="stroke-opacity: 0; stroke-width: 15;" fill="none" stroke="#ffffff" class="djs-hit"></rect><rect x="-6" y="-6" width="112" height="92" style="" fill="none" class="djs-outline"></rect></g></g><g class="djs-group"><g class="djs-element djs-shape" data-element-id="Task_1vnbc77" transform="matrix(1,0,0,1,389,475)" style="display: block;"><g class="djs-visual"><rect x="0" y="0" width="100" height="80" rx="10" ry="10" style="stroke-width: 2;" stroke="#000000" fill="#ffffff"></rect><text style="font-family: Arial,sans-serif; font-size: 12px;" class=" djs-label"><tspan x="20" y="36.5">Armazenar </tspan><tspan x="21.5" y="50.5">resultados </tspan></text></g><rect x="0" y="0" width="100" height="80" style="stroke-opacity: 0; stroke-width: 15;" fill="none" stroke="#ffffff" class="djs-hit"></rect><rect x="-6" y="-6" width="112" height="92" style="" fill="none" class="djs-outline"></rect></g></g><g class="djs-group"><g class="djs-element djs-shape" data-element-id="DataStoreReference_1yn0slk" transform="matrix(1,0,0,1,599.8131,490)" style="display: block;"><g class="djs-visual"><path d="m  0,6.65 l  0,36.885245901639344 c  1.639344262295082,8.196721311475411 47.540983606557376,8.196721311475411  49.18032786885246,0 l  0,-36.885245901639344 c -1.639344262295082,-8.196721311475411 -47.540983606557376,-8.196721311475411 -49.18032786885246,0c  1.639344262295082,8.196721311475411 47.540983606557376,8.196721311475411  49.18032786885246,0 m  -49.18032786885246,5.737704918032787c  1.639344262295082,8.196721311475411 47.540983606557376,8.196721311475411 49.18032786885246,0m  -49.18032786885246,5.737704918032787c  1.639344262295082,8.196721311475411 47.540983606557376,8.196721311475411  49.18032786885246,0" style="stroke-width: 2;" fill="#ffffff" stroke="#000000"></path></g><rect x="0" y="0" width="50" height="50" style="stroke-opacity: 0; stroke-width: 15;" fill="none" stroke="#ffffff" class="djs-hit"></rect><rect x="-6" y="-6" width="62" height="62" style="" fill="none" class="djs-outline"></rect></g></g><g class="djs-group"><g class="djs-element djs-shape" transform="matrix(1,0,0,1,421,373)" style="display: block;" data-element-id="IntermediateThrowEvent_1m1aaxg"><g class="djs-visual"><circle cx="18" cy="18" r="18" style="stroke-width: 1;" stroke="#000000" fill="#ffffff"></circle><circle cx="18" cy="18" r="15" style="stroke-width: 1;" stroke="#000000" fill="none"></circle><path d="m 8.459999999999999,11.34 l 0,12.6 l 18.900000000000002,0 l 0,-12.6 z l 9.450000000000001,5.4 l 9.450000000000001,-5.4" style="stroke-width: 1;" fill="#000000" stroke="#ffffff"></path></g><rect x="0" y="0" width="36" height="36" style="stroke-opacity: 0; stroke-width: 15;" fill="none" stroke="#ffffff" class="djs-hit"></rect><rect x="-6" y="-6" width="48" height="48" style="" fill="none" class="djs-outline"></rect></g></g><g class="djs-group"><g class="djs-element djs-shape" data-element-id="Task_02euziu" transform="matrix(1,0,0,1,389,198)" style="display: block;"><g class="djs-visual"><rect x="0" y="0" width="100" height="80" rx="10" ry="10" style="stroke-width: 2;" stroke="#000000" fill="#ffffff"></rect><text style="font-family: Arial,sans-serif; font-size: 12px;" class=" djs-label"><tspan x="13.5" y="36.5">Resultado da </tspan><tspan x="22" y="50.5">simulação </tspan></text></g><rect x="0" y="0" width="100" height="80" style="stroke-opacity: 0; stroke-width: 15;" fill="none" stroke="#ffffff" class="djs-hit"></rect><rect x="-6" y="-6" width="112" height="92" style="" fill="none" class="djs-outline"></rect></g></g><g class="djs-group"><g class="djs-element djs-shape hover" data-element-id="Task_1b362r0" transform="matrix(1,0,0,1,607.1423,198)" style="display: block;"><g class="djs-visual"><rect x="0" y="0" width="100" height="80" rx="10" ry="10" style="stroke-width: 2;" stroke="#000000" fill="#ffffff"></rect><text style="font-family: Arial,sans-serif; font-size: 12px;" class=" djs-label"><tspan x="7.5" y="36.5">Estado atual da</tspan><tspan x="22" y="50.5">simulação </tspan></text></g><rect x="0" y="0" width="100" height="80" style="stroke-opacity: 0; stroke-width: 15;" fill="none" stroke="#ffffff" class="djs-hit"></rect><rect x="-6" y="-6" width="112" height="92" style="" fill="none" class="djs-outline"></rect></g></g><g class="djs-group"><g class="djs-element djs-shape" data-element-id="ExclusiveGateway_14fpxu6" transform="matrix(1,0,0,1,524.1423,366)" style="display: block;"><g class="djs-visual"><polygon points="25,0,50,25,25,50,0,25" style="stroke-width: 2;" stroke="#000000" fill="#ffffff"></polygon><path d="m 16,15 7.42857142857143,9.714285714285715 -7.42857142857143,9.714285714285715 3.428571428571429,0 5.714285714285715,-7.464228571428572 5.714285714285715,7.464228571428572 3.428571428571429,0 -7.42857142857143,-9.714285714285715 7.42857142857143,-9.714285714285715 -3.428571428571429,0 -5.714285714285715,7.464228571428572 -5.714285714285715,-7.464228571428572 -3.428571428571429,0 z" style="stroke-width: 1;" fill="#000000" stroke="#000000"></path></g><rect x="0" y="0" width="50" height="50" style="stroke-opacity: 0; stroke-width: 15;" fill="none" stroke="#ffffff" class="djs-hit"></rect><rect x="-6" y="-6" width="62" height="62" style="" fill="none" class="djs-outline"></rect></g></g><g class="djs-group"><g class="djs-element djs-connection" data-element-id="SequenceFlow_0jnhump" style="display: block;"><g class="djs-visual"><path d="m  235,127L284,127 L284,198 " style="stroke-width: 2; stroke-linejoin: round; marker-end: url(&quot;#markerSiui7b3pb9&quot;);" fill="none" stroke="#000000"></path></g><polyline points="235,127 284,127 284,198 " style="stroke-opacity: 0; stroke-width: 15;" fill="none" stroke="#ffffff" class="djs-hit"></polyline><rect x="229" y="121" width="61" height="83" style="" fill="none" class="djs-outline"></rect></g></g><g class="djs-group"><g class="djs-element djs-shape" data-element-id="StartEvent_0szuqq9_label" transform="matrix(1,0,0,1,175,145.4364)" style="display: block;"><g class="djs-visual"><text style="font-family: Arial,sans-serif; font-size: 11px;" class=" djs-label" transform="matrix(1,0,0,1,-1.5,0)"><tspan x="15.5" y="12">Explorar um </tspan><tspan x="1.5" y="24">espaço de projeto </tspan></text></g><rect x="0" y="0" width="83" height="25" style="stroke-opacity: 0; stroke-width: 15;" fill="none" stroke="#ffffff" class="djs-hit"></rect><rect x="-6" y="-6" width="95" height="37" style="" fill="none" class="djs-outline"></rect></g></g><g class="djs-group"><g class="djs-element djs-connection" data-element-id="SequenceFlow_03ddz6o" style="display: block;"><g class="djs-visual"><path d="m  284,278L284,351 " style="stroke-width: 2; stroke-linejoin: round; marker-end: url(&quot;#markerSiui7b3pb9&quot;);" fill="none" stroke="#000000"></path></g><polyline points="284,278 284,351 " style="stroke-opacity: 0; stroke-width: 15;" fill="none" stroke="#ffffff" class="djs-hit"></polyline><rect x="278" y="272" width="12" height="85" style="" fill="none" class="djs-outline"></rect></g></g><g class="djs-group"><g class="djs-element djs-connection" data-element-id="SequenceFlow_1micyyv" style="display: block;"><g class="djs-visual"><path d="m  284,431L284,452 L284,452 L284,475 " style="stroke-width: 2; stroke-linejoin: round; marker-end: url(&quot;#markerSiui7b3pb9&quot;);" fill="none" stroke="#000000"></path></g><polyline points="284,431 284,452 284,452 284,475 " style="stroke-opacity: 0; stroke-width: 15;" fill="none" stroke="#ffffff" class="djs-hit"></polyline><rect x="278" y="425" width="12" height="56" style="" fill="none" class="djs-outline"></rect></g></g><g class="djs-group"><g class="djs-element djs-connection" data-element-id="SequenceFlow_1n585um" style="display: block;"><g class="djs-visual"><path d="m  284,555L284,576 L284,576 L284,597 " style="stroke-width: 2; stroke-linejoin: round; marker-end: url(&quot;#markerSiui7b3pb9&quot;);" fill="none" stroke="#000000"></path></g><polyline points="284,555 284,576 284,576 284,597 " style="stroke-opacity: 0; stroke-width: 15;" fill="none" stroke="#ffffff" class="djs-hit"></polyline><rect x="278" y="549" width="12" height="54" style="" fill="none" class="djs-outline"></rect></g></g><g class="djs-group"><g class="djs-element djs-connection" data-element-id="SequenceFlow_05qjuyl" style="display: block;"><g class="djs-visual"><path d="m  284,677L284,713 " style="stroke-width: 2; stroke-linejoin: round; marker-end: url(&quot;#markerSiui7b3pb9&quot;);" fill="none" stroke="#000000"></path></g><polyline points="284,677 284,713 " style="stroke-opacity: 0; stroke-width: 15;" fill="none" stroke="#ffffff" class="djs-hit"></polyline><rect x="278" y="671" width="12" height="48" style="" fill="none" class="djs-outline"></rect></g></g><g class="djs-group"><g class="djs-element djs-connection" data-element-id="SequenceFlow_0yowflf" style="display: block;"><g class="djs-visual"><path d="m  334,753L439,753 L439,677 " style="stroke-width: 2; stroke-linejoin: round; marker-end: url(&quot;#markerSiui7b3pb9&quot;);" fill="none" stroke="#000000"></path></g><polyline points="334,753 439,753 439,677 " style="stroke-opacity: 0; stroke-width: 15;" fill="none" stroke="#ffffff" class="djs-hit"></polyline><rect x="328" y="671" width="117" height="88" style="" fill="none" class="djs-outline"></rect></g></g><g class="djs-group"><g class="djs-element djs-connection" data-element-id="SequenceFlow_05xao7x" style="display: block;"><g class="djs-visual"><path d="m  439,597L439,576 L439,576 L439,555 " style="stroke-width: 2; stroke-linejoin: round; marker-end: url(&quot;#markerSiui7b3pb9&quot;);" fill="none" stroke="#000000"></path></g><polyline points="439,597 439,576 439,576 439,555 " style="stroke-opacity: 0; stroke-width: 15;" fill="none" stroke="#ffffff" class="djs-hit"></polyline><rect x="433" y="549" width="12" height="54" style="" fill="none" class="djs-outline"></rect></g></g><g class="djs-group"><g class="djs-element djs-shape" data-element-id="SequenceFlow_05qjuyl_label" transform="matrix(1,0,0,1,299,695)" style="display: none;"><g class="djs-visual"><text style="font-family: Arial,sans-serif; font-size: 11px;" class=" djs-label" transform="matrix(1,0,0,1,0,0)"><tspan x="45" y="0"></tspan></text></g><rect x="0" y="0" width="0" height="0" style="stroke-opacity: 0; stroke-width: 15;" fill="none" stroke="#ffffff" class="djs-hit"></rect><rect x="-6" y="-6" width="12" height="12" style="" fill="none" class="djs-outline"></rect></g></g><g class="djs-group"><g class="djs-element djs-shape" data-element-id="SequenceFlow_1n585um_label" transform="matrix(1,0,0,1,299,576)" style="display: none;"><g class="djs-visual"><text style="font-family: Arial,sans-serif; font-size: 11px;" class=" djs-label" transform="matrix(1,0,0,1,0,0)"><tspan x="45" y="0"></tspan></text></g><rect x="0" y="0" width="0" height="0" style="stroke-opacity: 0; stroke-width: 15;" fill="none" stroke="#ffffff" class="djs-hit"></rect><rect x="-6" y="-6" width="12" height="12" style="" fill="none" class="djs-outline"></rect></g></g><g class="djs-group"><g class="djs-element djs-shape" data-element-id="SequenceFlow_1micyyv_label" transform="matrix(1,0,0,1,299,452)" style="display: none;"><g class="djs-visual"><text style="font-family: Arial,sans-serif; font-size: 11px;" class=" djs-label" transform="matrix(1,0,0,1,0,0)"><tspan x="45" y="0"></tspan></text></g><rect x="0" y="0" width="0" height="0" style="stroke-opacity: 0; stroke-width: 15;" fill="none" stroke="#ffffff" class="djs-hit"></rect><rect x="-6" y="-6" width="12" height="12" style="" fill="none" class="djs-outline"></rect></g></g><g class="djs-group"><g class="djs-element djs-shape" data-element-id="SequenceFlow_0jnhump_label" transform="matrix(1,0,0,1,260,112)" style="display: none;"><g class="djs-visual"><text style="font-family: Arial,sans-serif; font-size: 11px;" class=" djs-label" transform="matrix(1,0,0,1,0,0)"><tspan x="45" y="0"></tspan></text></g><rect x="0" y="0" width="0" height="0" style="stroke-opacity: 0; stroke-width: 15;" fill="none" stroke="#ffffff" class="djs-hit"></rect><rect x="-6" y="-6" width="12" height="12" style="" fill="none" class="djs-outline"></rect></g></g><g class="djs-group"><g class="djs-element djs-shape" data-element-id="SequenceFlow_03ddz6o_label" transform="matrix(1,0,0,1,299,314.5)" style="display: none;"><g class="djs-visual"><text style="font-family: Arial,sans-serif; font-size: 11px;" class=" djs-label" transform="matrix(1,0,0,1,0,0)"><tspan x="45" y="0"></tspan></text></g><rect x="0" y="0" width="0" height="0" style="stroke-opacity: 0; stroke-width: 15;" fill="none" stroke="#ffffff" class="djs-hit"></rect><rect x="-6" y="-6" width="12" height="12" style="" fill="none" class="djs-outline"></rect></g></g><g class="djs-group"><g class="djs-element djs-shape" data-element-id="SequenceFlow_0yowflf_label" transform="matrix(1,0,0,1,387,738)" style="display: none;"><g class="djs-visual"><text style="font-family: Arial,sans-serif; font-size: 11px;" class=" djs-label" transform="matrix(1,0,0,1,0,0)"><tspan x="45" y="0"></tspan></text></g><rect x="0" y="0" width="0" height="0" style="stroke-opacity: 0; stroke-width: 15;" fill="none" stroke="#ffffff" class="djs-hit"></rect><rect x="-6" y="-6" width="12" height="12" style="" fill="none" class="djs-outline"></rect></g></g><g class="djs-group"><g class="djs-element djs-shape" data-element-id="SequenceFlow_05xao7x_label" transform="matrix(1,0,0,1,454,576)" style="display: none;"><g class="djs-visual"><text style="font-family: Arial,sans-serif; font-size: 11px;" class=" djs-label" transform="matrix(1,0,0,1,0,0)"><tspan x="45" y="0"></tspan></text></g><rect x="0" y="0" width="0" height="0" style="stroke-opacity: 0; stroke-width: 15;" fill="none" stroke="#ffffff" class="djs-hit"></rect><rect x="-6" y="-6" width="12" height="12" style="" fill="none" class="djs-outline"></rect></g></g><g class="djs-group"><g class="djs-element djs-shape" data-element-id="DataStoreReference_1yn0slk_label" transform="matrix(1,0,0,1,625,540)" style="display: none;"><g class="djs-visual"><text style="font-family: Arial,sans-serif; font-size: 11px;" class=" djs-label" transform="matrix(1,0,0,1,0,0)"><tspan x="45" y="0"></tspan></text></g><rect x="0" y="0" width="0" height="0" style="stroke-opacity: 0; stroke-width: 15;" fill="none" stroke="#ffffff" class="djs-hit"></rect><rect x="-6" y="-6" width="12" height="12" style="" fill="none" class="djs-outline"></rect></g></g><g class="djs-group"><g class="djs-element djs-connection" data-element-id="SequenceFlow_1tw1aec" style="display: block;"><g class="djs-visual"><path d="m  439,475L439,409 " style="stroke-width: 2; stroke-linejoin: round; marker-end: url(&quot;#markerSiui7b3pb9&quot;);" fill="none" stroke="#000000"></path></g><polyline points="439,475 439,409 " style="stroke-opacity: 0; stroke-width: 15;" fill="none" stroke="#ffffff" class="djs-hit"></polyline><rect x="433" y="403" width="12" height="78" style="" fill="none" class="djs-outline"></rect></g></g><g class="djs-group"><g class="djs-element djs-shape" data-element-id="SequenceFlow_1tw1aec_label" transform="matrix(1,0,0,1,454,442)" style="display: none;"><g class="djs-visual"><text style="font-family: Arial,sans-serif; font-size: 11px;" class=" djs-label" transform="matrix(1,0,0,1,0,0)"><tspan x="45" y="0"></tspan></text></g><rect x="0" y="0" width="0" height="0" style="stroke-opacity: 0; stroke-width: 15;" fill="none" stroke="#ffffff" class="djs-hit"></rect><rect x="-6" y="-6" width="12" height="12" style="" fill="none" class="djs-outline"></rect></g></g><g class="djs-group"><g class="djs-element djs-shape" data-element-id="IntermediateThrowEvent_0ljmlch_label" transform="matrix(1,0,0,1,400,350)" style="display: block;"><g class="djs-visual"><text style="font-family: Arial,sans-serif; font-size: 11px;" class=" djs-label" transform="matrix(1,0,0,1,-6.5,0)"><tspan x="6.5" y="12">Progresso atual</tspan><tspan x="45" y="12"></tspan></text></g><rect x="0" y="0" width="78" height="13" style="stroke-opacity: 0; stroke-width: 15;" fill="none" stroke="#ffffff" class="djs-hit"></rect><rect x="-6" y="-6" width="90" height="25" style="" fill="none" class="djs-outline"></rect></g></g><g class="djs-group"><g class="djs-element djs-connection" data-element-id="SequenceFlow_01d7js9" style="display: block;"><g class="djs-visual"><path d="m  457,391L524,391 " style="stroke-width: 2; stroke-linejoin: round; marker-end: url(&quot;#markerSiui7b3pb9&quot;);" fill="none" stroke="#000000"></path></g><polyline points="457,391 524,391 " style="stroke-opacity: 0; stroke-width: 15;" fill="none" stroke="#ffffff" class="djs-hit"></polyline><rect x="451" y="385" width="79" height="12" style="" fill="none" class="djs-outline"></rect></g></g><g class="djs-group"><g class="djs-element djs-connection" data-element-id="SequenceFlow_1tjevgv" style="display: block;"><g class="djs-visual"><path d="m  549,366L549,238 L489,238 " style="stroke-width: 2; stroke-linejoin: round; marker-end: url(&quot;#markerSiui7b3pb9&quot;);" fill="none" stroke="#000000"></path></g><polyline points="549,366 549,238 489,238 " style="stroke-opacity: 0; stroke-width: 15;" fill="none" stroke="#ffffff" class="djs-hit"></polyline><rect x="483" y="232" width="72" height="140" style="" fill="none" class="djs-outline"></rect></g></g><g class="djs-group"><g class="djs-element djs-connection" data-element-id="SequenceFlow_1ica98x" style="display: block;"><g class="djs-visual"><path d="m  549,366L549,238 L607,238 " style="stroke-width: 2; stroke-linejoin: round; marker-end: url(&quot;#markerSiui7b3pb9&quot;);" fill="none" stroke="#000000"></path></g><polyline points="549,366 549,238 607,238 " style="stroke-opacity: 0; stroke-width: 15;" fill="none" stroke="#ffffff" class="djs-hit"></polyline><rect x="543" y="232" width="70" height="140" style="" fill="none" class="djs-outline"></rect></g></g><g class="djs-group"><g class="djs-element djs-shape" data-element-id="SequenceFlow_01d7js9_label" transform="matrix(1,0,0,1,491,376)" style="display: none;"><g class="djs-visual"><text style="font-family: Arial,sans-serif; font-size: 11px;" class=" djs-label" transform="matrix(1,0,0,1,0,0)"><tspan x="45" y="0"></tspan></text></g><rect x="0" y="0" width="0" height="0" style="stroke-opacity: 0; stroke-width: 15;" fill="none" stroke="#ffffff" class="djs-hit"></rect><rect x="-6" y="-6" width="12" height="12" style="" fill="none" class="djs-outline"></rect></g></g><g class="djs-group"><g class="djs-element djs-shape" data-element-id="ExclusiveGateway_14fpxu6_label" transform="matrix(1,0,0,1,550,416)" style="display: none;"><g class="djs-visual"><text style="font-family: Arial,sans-serif; font-size: 11px;" class=" djs-label" transform="matrix(1,0,0,1,0,0)"><tspan x="45" y="0"></tspan></text></g><rect x="0" y="0" width="0" height="0" style="stroke-opacity: 0; stroke-width: 15;" fill="none" stroke="#ffffff" class="djs-hit"></rect><rect x="-6" y="-6" width="12" height="12" style="" fill="none" class="djs-outline"></rect></g></g><g class="djs-group"><g class="djs-element djs-shape" data-element-id="SequenceFlow_1tjevgv_label" transform="matrix(1,0,0,1,515,242.5)" style="display: block;"><g class="djs-visual"><text style="font-family: Arial,sans-serif; font-size: 11px;" class=" djs-label" transform="matrix(1,0,0,1,-36,0)"><tspan x="36" y="12">Sim</tspan></text></g><rect x="0" y="0" width="19" height="13" style="stroke-opacity: 0; stroke-width: 15;" fill="none" stroke="#ffffff" class="djs-hit"></rect><rect x="-6" y="-6" width="31" height="25" style="" fill="none" class="djs-outline"></rect></g></g><g class="djs-group"><g class="djs-element djs-shape" data-element-id="SequenceFlow_1ica98x_label" transform="matrix(1,0,0,1,563,243)" style="display: block;"><g class="djs-visual"><text style="font-family: Arial,sans-serif; font-size: 11px;" class=" djs-label" transform="matrix(1,0,0,1,-35,0)"><tspan x="35" y="12">Não</tspan></text></g><rect x="0" y="0" width="21" height="13" style="stroke-opacity: 0; stroke-width: 15;" fill="none" stroke="#ffffff" class="djs-hit"></rect><rect x="-6" y="-6" width="33" height="25" style="" fill="none" class="djs-outline"></rect></g></g></g></g><g class="djs-group" xmlns="http://www.w3.org/2000/svg"><g class="djs-element djs-connection" data-element-id="DataOutputAssociation_1rjjpms" style="display: block;"><g class="djs-visual"><polyline points="489,515 600,516 " style="stroke-width: 2; stroke-dasharray: 0.5, 5; stroke-linecap: round; stroke-linejoin: round; marker-end: url(&quot;#markerSiui7b3pbh&quot;);" fill="none" stroke="#000000"></polyline></g><polyline points="489,515 600,516 " style="stroke-opacity: 0; stroke-width: 15;" fill="none" stroke="#ffffff" class="djs-hit"></polyline><rect x="483" y="509" width="123" height="13" style="" fill="none" class="djs-outline"></rect></g></g></svg>