<?xml version="1.0" encoding="utf-8"?>
<!-- created with bpmn-js / http://bpmn.io -->
<!DOCTYPE svg PUBLIC "-//W3C//DTD SVG 1.1//EN" "http://www.w3.org/Graphics/SVG/1.1/DTD/svg11.dtd">
<svg xmlns="http://www.w3.org/2000/svg" xmlns:xlink="http://www.w3.org/1999/xlink" width="740" height="382" viewBox="289 71 740 382" version="1.1"><defs><marker viewBox="0 0 20 20" markerWidth="10" markerHeight="10" orient="auto" refX="11" refY="10" id="markerSiui7b3pb9"><path d="M 1 5 L 11 10 L 1 15 Z" style="stroke-width: 1; stroke-linecap: round; stroke-dasharray: 10000, 1;" fill="#000000"/></marker><marker viewBox="0 0 20 20" markerWidth="20" markerHeight="20" orient="auto" refX="6" refY="6" id="markerSiui7b3pbb"><circle cx="6" cy="6" r="3.5" style="stroke-width: 1; stroke-linecap: round; stroke-dasharray: 10000, 1;" fill="#ffffff" stroke="#000000"/></marker><marker viewBox="0 0 20 20" markerWidth="20" markerHeight="20" orient="auto" refX="8.5" refY="5" id="markerSiui7b3pbd"><path d="m 1 5 l 0 -3 l 7 3 l -7 3 z" style="stroke-width: 1; stroke-linecap: butt; stroke-dasharray: 10000, 1;" fill="#ffffff" stroke="#000000"/></marker><marker viewBox="0 0 20 20" markerWidth="10" markerHeight="10" orient="auto" refX="1" refY="10" id="markerSiui7b3pbf"><path d="M 11 5 L 1 10 L 11 15" style="stroke-width: 1.5; stroke-linecap: round; stroke-dasharray: 10000, 1;" fill="none" stroke="#000000"/></marker><marker viewBox="0 0 20 20" markerWidth="10" markerHeight="10" orient="auto" refX="12" refY="10" id="markerSiui7b3pbh"><path d="M 1 5 L 11 10 L 1 15" style="stroke-width: 1.5; stroke-linecap: round; stroke-dasharray: 10000, 1;" fill="none" stroke="#000000"/></marker><marker viewBox="0 0 20 20" markerWidth="10" markerHeight="10" orient="auto" refX="-1" refY="10" id="markerSiui7b3pbj"><path d="M 0 10 L 8 6 L 16 10 L 8 14 Z" style="stroke-width: 1; stroke-linecap: round; stroke-dasharray: 10000, 1;" fill="#ffffff" stroke="#000000"/></marker><marker viewBox="0 0 20 20" markerWidth="10" markerHeight="10" orient="auto" refX="-5" refY="10" id="markerSiui7b3pbl"><path d="M 1 4 L 5 16" style="stroke-width: 1; stroke-linecap: round; stroke-dasharray: 10000, 1;" fill="#000000" stroke="#000000"/></marker></defs><g class="djs-group" xmlns="http://www.w3.org/2000/svg"><g class="djs-element djs-shape" data-element-id="Participant_00nxodt" transform="matrix(1,0,0,1,295,77)" style="display: block;"><g class="djs-visual"><rect x="0" y="0" width="728" height="370" rx="0" ry="0" style="stroke-width: 2; fill-opacity: 0.95;" stroke="#000000" fill="#ffffff"></rect><polyline points="30,0 30,370 " style="stroke-width: 2;" fill="none" stroke="#000000"></polyline><text style="font-family: Arial,sans-serif; font-size: 12px;" class=" djs-label" transform="matrix(0,-1,1,0,0,370)"><tspan x="125.5" y="18.5">Efetuar login da conta</tspan><tspan x="185" y="18.5"></tspan></text></g><rect x="0" y="0" width="728" height="370" style="stroke-opacity: 0; stroke-width: 15;" fill="none" stroke="#ffffff" class="djs-hit"></rect><rect x="-6" y="-6" width="740" height="382" style="" fill="none" class="djs-outline"></rect></g><g class="djs-children"><g class="djs-group"><g class="djs-element djs-shape" data-element-id="Lane_02nujml" transform="matrix(1,0,0,1,325,77)" style="display: block;"><g class="djs-visual"><rect x="0" y="0" width="698" height="185" rx="0" ry="0" style="stroke-width: 2;" stroke="#000000" fill="none"></rect><text style="font-family: Arial,sans-serif; font-size: 12px;" class=" djs-label" transform="matrix(0,-1,1,0,0,185)"><tspan x="71" y="18.5">Usuário</tspan></text></g><rect x="0" y="0" width="698" height="185" style="stroke-opacity: 0; stroke-width: 15;" fill="none" stroke="#ffffff" class="djs-hit"></rect><rect x="-6" y="-6" width="710" height="197" style="" fill="none" class="djs-outline"></rect></g></g><g class="djs-group"><g class="djs-element djs-shape" data-element-id="Lane_110hoye" transform="matrix(1,0,0,1,325,262)" style="display: block;"><g class="djs-visual"><rect x="0" y="0" width="698" height="185" rx="0" ry="0" style="stroke-width: 2;" stroke="#000000" fill="none"></rect><text style="font-family: Arial,sans-serif; font-size: 12px;" class=" djs-label" transform="matrix(0,-1,1,0,0,185)"><tspan x="55" y="18.5">Interface Web</tspan><tspan x="92.5" y="18.5"></tspan></text></g><rect x="0" y="0" width="698" height="185" style="stroke-opacity: 0; stroke-width: 15;" fill="none" stroke="#ffffff" class="djs-hit"></rect><rect x="-6" y="-6" width="710" height="197" style="" fill="none" class="djs-outline"></rect></g></g><g class="djs-group"><g class="djs-element djs-shape" data-element-id="Task_00obgxi" transform="matrix(1,0,0,1,527,103)" style="display: block;"><g class="djs-visual"><rect x="0" y="0" width="100" height="80" rx="10" ry="10" style="stroke-width: 2;" stroke="#000000" fill="#ffffff"></rect><text style="font-family: Arial,sans-serif; font-size: 12px;" class=" djs-label"><tspan x="11" y="29.5">Inserir nome e </tspan><tspan x="24.5" y="43.5">senha do </tspan><tspan x="29.5" y="57.5">usuário </tspan></text></g><rect x="0" y="0" width="100" height="80" style="stroke-opacity: 0; stroke-width: 15;" fill="none" stroke="#ffffff" class="djs-hit"></rect><rect x="-6" y="-6" width="112" height="92" style="" fill="none" class="djs-outline"></rect></g></g><g class="djs-group"><g class="djs-element djs-shape" data-element-id="Task_0bpic37" transform="matrix(1,0,0,1,527,302)" style="display: block;"><g class="djs-visual"><rect x="0" y="0" width="100" height="80" rx="10" ry="10" style="stroke-width: 2;" stroke="#000000" fill="#ffffff"></rect><text style="font-family: Arial,sans-serif; font-size: 12px;" class=" djs-label"><tspan x="14.5" y="36.5">Autenticação </tspan><tspan x="21.5" y="50.5">dos dados </tspan></text></g><rect x="0" y="0" width="100" height="80" style="stroke-opacity: 0; stroke-width: 15;" fill="none" stroke="#ffffff" class="djs-hit"></rect><rect x="-6" y="-6" width="112" height="92" style="" fill="none" class="djs-outline"></rect></g></g><g class="djs-group"><g class="djs-element djs-shape" data-element-id="DataStoreReference_0329qxw" transform="matrix(1,0,0,1,396,317)" style="display: block;"><g class="djs-visual"><path d="m  0,6.65 l  0,36.885245901639344 c  1.639344262295082,8.196721311475411 47.540983606557376,8.196721311475411  49.18032786885246,0 l  0,-36.885245901639344 c -1.639344262295082,-8.196721311475411 -47.540983606557376,-8.196721311475411 -49.18032786885246,0c  1.639344262295082,8.196721311475411 47.540983606557376,8.196721311475411  49.18032786885246,0 m  -49.18032786885246,5.737704918032787c  1.639344262295082,8.196721311475411 47.540983606557376,8.196721311475411 49.18032786885246,0m  -49.18032786885246,5.737704918032787c  1.639344262295082,8.196721311475411 47.540983606557376,8.196721311475411  49.18032786885246,0" style="stroke-width: 2;" fill="#ffffff" stroke="#000000"></path></g><rect x="0" y="0" width="50" height="50" style="stroke-opacity: 0; stroke-width: 15;" fill="none" stroke="#ffffff" class="djs-hit"></rect><rect x="-6" y="-6" width="62" height="62" style="" fill="none" class="djs-outline"></rect></g></g><g class="djs-group"><g class="djs-element djs-shape" data-element-id="StartEvent_1am62jm" transform="matrix(1,0,0,1,383,125)" style="display: block;"><g class="djs-visual"><circle cx="18" cy="18" r="18" style="stroke-width: 2;" stroke="#000000" fill="#ffffff"></circle></g><rect x="0" y="0" width="36" height="36" style="stroke-opacity: 0; stroke-width: 15;" fill="none" stroke="#ffffff" class="djs-hit"></rect><rect x="-6" y="-6" width="48" height="48" style="" fill="none" class="djs-outline"></rect></g></g><g class="djs-group"><g class="djs-element djs-shape" data-element-id="ExclusiveGateway_1r31q3l" transform="matrix(1,0,0,1,733,317)" style="display: block;"><g class="djs-visual"><polygon points="25,0,50,25,25,50,0,25" style="stroke-width: 2;" stroke="#000000" fill="#ffffff"></polygon><path d="m 16,15 7.42857142857143,9.714285714285715 -7.42857142857143,9.714285714285715 3.428571428571429,0 5.714285714285715,-7.464228571428572 5.714285714285715,7.464228571428572 3.428571428571429,0 -7.42857142857143,-9.714285714285715 7.42857142857143,-9.714285714285715 -3.428571428571429,0 -5.714285714285715,7.464228571428572 -5.714285714285715,-7.464228571428572 -3.428571428571429,0 z" style="stroke-width: 1;" fill="#000000" stroke="#000000"></path></g><rect x="0" y="0" width="50" height="50" style="stroke-opacity: 0; stroke-width: 15;" fill="none" stroke="#ffffff" class="djs-hit"></rect><rect x="-6" y="-6" width="62" height="62" style="" fill="none" class="djs-outline"></rect></g></g><g class="djs-group"><g class="djs-element djs-shape" data-element-id="EndEvent_1qfklf7" transform="matrix(1,0,0,1,871,125)" style="display: block;"><g class="djs-visual"><circle cx="18" cy="18" r="18" style="stroke-width: 4;" stroke="#000000" fill="#ffffff"></circle></g><rect x="0" y="0" width="36" height="36" style="stroke-opacity: 0; stroke-width: 15;" fill="none" stroke="#ffffff" class="djs-hit"></rect><rect x="-6" y="-6" width="48" height="48" style="" fill="none" class="djs-outline"></rect></g></g><g class="djs-group"><g class="djs-element djs-connection" data-element-id="SequenceFlow_09ocqkf" style="display: block;"><g class="djs-visual"><path d="m  577,183L577,302 " style="stroke-width: 2; stroke-linejoin: round; marker-end: url(&quot;#markerSiui7b3pb9&quot;);" fill="none" stroke="#000000"></path></g><polyline points="577,183 577,302 " style="stroke-opacity: 0; stroke-width: 15;" fill="none" stroke="#ffffff" class="djs-hit"></polyline><rect x="571" y="177" width="12" height="131" style="" fill="none" class="djs-outline"></rect></g></g><g class="djs-group"><g class="djs-element djs-shape" data-element-id="SequenceFlow_09ocqkf_label" transform="matrix(1,0,0,1,592,232.5)" style="display: none;"><g class="djs-visual"><text style="font-family: Arial,sans-serif; font-size: 11px;" class=" djs-label" transform="matrix(1,0,0,1,0,0)"><tspan x="45" y="0"></tspan></text></g><rect x="0" y="0" width="0" height="0" style="stroke-opacity: 0; stroke-width: 15;" fill="none" stroke="#ffffff" class="djs-hit"></rect><rect x="-6" y="-6" width="12" height="12" style="" fill="none" class="djs-outline"></rect></g></g><g class="djs-group"><g class="djs-element djs-shape" data-element-id="DataStoreReference_0329qxw_label" transform="matrix(1,0,0,1,421,367)" style="display: none;"><g class="djs-visual"><text style="font-family: Arial,sans-serif; font-size: 11px;" class=" djs-label" transform="matrix(1,0,0,1,0,0)"><tspan x="45" y="0"></tspan></text></g><rect x="0" y="0" width="0" height="0" style="stroke-opacity: 0; stroke-width: 15;" fill="none" stroke="#ffffff" class="djs-hit"></rect><rect x="-6" y="-6" width="12" height="12" style="" fill="none" class="djs-outline"></rect></g></g><g class="djs-group"><g class="djs-element djs-connection" data-element-id="SequenceFlow_0t2eqst" style="display: block;"><g class="djs-visual"><path d="m  627,342L733,342 " style="stroke-width: 2; stroke-linejoin: round; marker-end: url(&quot;#markerSiui7b3pb9&quot;);" fill="none" stroke="#000000"></path></g><polyline points="627,342 733,342 " style="stroke-opacity: 0; stroke-width: 15;" fill="none" stroke="#ffffff" class="djs-hit"></polyline><rect x="621" y="336" width="118" height="12" style="" fill="none" class="djs-outline"></rect></g></g><g class="djs-group"><g class="djs-element djs-connection" data-element-id="SequenceFlow_0dq1vub" style="display: block;"><g class="djs-visual"><path d="m  419,143L527,143 " style="stroke-width: 2; stroke-linejoin: round; marker-end: url(&quot;#markerSiui7b3pb9&quot;);" fill="none" stroke="#000000"></path></g><polyline points="419,143 527,143 " style="stroke-opacity: 0; stroke-width: 15;" fill="none" stroke="#ffffff" class="djs-hit"></polyline><rect x="413" y="137" width="120" height="12" style="" fill="none" class="djs-outline"></rect></g></g><g class="djs-group"><g class="djs-element djs-connection" data-element-id="SequenceFlow_1e817ys" style="display: block;"><g class="djs-visual"><path d="m  758,317L758,143 L627,143 " style="stroke-width: 2; stroke-linejoin: round; marker-end: url(&quot;#markerSiui7b3pb9&quot;);" fill="none" stroke="#000000"></path></g><polyline points="758,317 758,143 627,143 " style="stroke-opacity: 0; stroke-width: 15;" fill="none" stroke="#ffffff" class="djs-hit"></polyline><rect x="621" y="137" width="143" height="186" style="" fill="none" class="djs-outline"></rect></g></g><g class="djs-group"><g class="djs-element djs-shape" data-element-id="SequenceFlow_0dq1vub_label" transform="matrix(1,0,0,1,473,128)" style="display: none;"><g class="djs-visual"><text style="font-family: Arial,sans-serif; font-size: 11px;" class=" djs-label" transform="matrix(1,0,0,1,0,0)"><tspan x="45" y="0"></tspan></text></g><rect x="0" y="0" width="0" height="0" style="stroke-opacity: 0; stroke-width: 15;" fill="none" stroke="#ffffff" class="djs-hit"></rect><rect x="-6" y="-6" width="12" height="12" style="" fill="none" class="djs-outline"></rect></g></g><g class="djs-group"><g class="djs-element djs-shape" data-element-id="StartEvent_1am62jm_label" transform="matrix(1,0,0,1,385,161)" style="display: block;"><g class="djs-visual"><text style="font-family: Arial,sans-serif; font-size: 11px;" class=" djs-label" transform="matrix(1,0,0,1,-29,0)"><tspan x="29" y="12">Sign in</tspan><tspan x="45" y="12"></tspan></text></g><rect x="0" y="0" width="32" height="12" style="stroke-opacity: 0; stroke-width: 15;" fill="none" stroke="#ffffff" class="djs-hit"></rect><rect x="-6" y="-6" width="44" height="24" style="" fill="none" class="djs-outline"></rect></g></g><g class="djs-group"><g class="djs-element djs-shape" data-element-id="SequenceFlow_0t2eqst_label" transform="matrix(1,0,0,1,680,327)" style="display: none;"><g class="djs-visual"><text style="font-family: Arial,sans-serif; font-size: 11px;" class=" djs-label" transform="matrix(1,0,0,1,0,0)"><tspan x="45" y="0"></tspan></text></g><rect x="0" y="0" width="0" height="0" style="stroke-opacity: 0; stroke-width: 15;" fill="none" stroke="#ffffff" class="djs-hit"></rect><rect x="-6" y="-6" width="12" height="12" style="" fill="none" class="djs-outline"></rect></g></g><g class="djs-group"><g class="djs-element djs-shape" data-element-id="SequenceFlow_1e817ys_label" transform="matrix(1,0,0,1,661,153.5)" style="display: block;"><g class="djs-visual"><text style="font-family: Arial,sans-serif; font-size: 11px;" class=" djs-label" transform="matrix(1,0,0,1,-35,0)"><tspan x="35" y="12">Não</tspan></text></g><rect x="0" y="0" width="20" height="12" style="stroke-opacity: 0; stroke-width: 15;" fill="none" stroke="#ffffff" class="djs-hit"></rect><rect x="-6" y="-6" width="32" height="24" style="" fill="none" class="djs-outline"></rect></g></g><g class="djs-group"><g class="djs-element djs-shape" data-element-id="ExclusiveGateway_1r31q3l_label" transform="matrix(1,0,0,1,713,367)" style="display: block;"><g class="djs-visual"><text style="font-family: Arial,sans-serif; font-size: 11px;" class=" djs-label" transform="matrix(1,0,0,1,-2,0)"><tspan x="29" y="12">Foram </tspan><tspan x="2" y="24">autenticados com </tspan><tspan x="24" y="36">sucesso </tspan></text></g><rect x="0" y="0" width="89" height="36" style="stroke-opacity: 0; stroke-width: 15;" fill="none" stroke="#ffffff" class="djs-hit"></rect><rect x="-6" y="-6" width="101" height="48" style="" fill="none" class="djs-outline"></rect></g></g><g class="djs-group"><g class="djs-element djs-connection" data-element-id="SequenceFlow_0d93xd4" style="display: block;"><g class="djs-visual"><path d="m  758,317L758,143 L871,143 " style="stroke-width: 2; stroke-linejoin: round; marker-end: url(&quot;#markerSiui7b3pb9&quot;);" fill="none" stroke="#000000"></path></g><polyline points="758,317 758,143 871,143 " style="stroke-opacity: 0; stroke-width: 15;" fill="none" stroke="#ffffff" class="djs-hit"></polyline><rect x="752" y="137" width="125" height="186" style="" fill="none" class="djs-outline"></rect></g></g><g class="djs-group"><g class="djs-element djs-shape" data-element-id="SequenceFlow_0d93xd4_label" transform="matrix(1,0,0,1,841,149.3273)" style="display: block;"><g class="djs-visual"><text style="font-family: Arial,sans-serif; font-size: 11px;" class=" djs-label" transform="matrix(1,0,0,1,-36,0)"><tspan x="36" y="12">Sim</tspan></text></g><rect x="0" y="0" width="18" height="12" style="stroke-opacity: 0; stroke-width: 15;" fill="none" stroke="#ffffff" class="djs-hit"></rect><rect x="-6" y="-6" width="30" height="24" style="" fill="none" class="djs-outline"></rect></g></g><g class="djs-group"><g class="djs-element djs-shape selected" data-element-id="EndEvent_1qfklf7_label" transform="matrix(1,0,0,1,852,87)" style="display: block;"><g class="djs-visual"><text style="font-family: Arial,sans-serif; font-size: 11px;" class=" djs-label" transform="matrix(1,0,0,1,-9.5,0)"><tspan x="9.5" y="12">Login efetuado </tspan><tspan x="12" y="24">com sucesso </tspan></text></g><rect x="0" y="0" width="74" height="24" style="stroke-opacity: 0; stroke-width: 15;" fill="none" stroke="#ffffff" class="djs-hit"></rect><rect x="-6" y="-6" width="86" height="36" style="" fill="none" class="djs-outline"></rect></g></g></g></g><g class="djs-group" xmlns="http://www.w3.org/2000/svg"><g class="djs-element djs-connection" data-element-id="DataOutputAssociation_1jvdt0i" style="display: block;"><g class="djs-visual"><polyline points="527,344 446,346 " style="stroke-width: 2; stroke-dasharray: 0.5, 5; stroke-linecap: round; stroke-linejoin: round; marker-end: url(&quot;#markerSiui7b3pbh&quot;);" fill="none" stroke="#000000"></polyline></g><polyline points="527,344 446,346 " style="stroke-opacity: 0; stroke-width: 15;" fill="none" stroke="#ffffff" class="djs-hit"></polyline><rect x="440" y="338" width="93" height="14" style="" fill="none" class="djs-outline"></rect></g></g></svg>