<?xml version="1.0" encoding="utf-8"?>
<!-- created with bpmn-js / http://bpmn.io -->
<!DOCTYPE svg PUBLIC "-//W3C//DTD SVG 1.1//EN" "http://www.w3.org/Graphics/SVG/1.1/DTD/svg11.dtd">
<svg xmlns="http://www.w3.org/2000/svg" xmlns:xlink="http://www.w3.org/1999/xlink" width="843" height="406" viewBox="316 40 843 406" version="1.1"><defs><marker viewBox="0 0 20 20" markerWidth="10" markerHeight="10" orient="auto" refX="11" refY="10" id="markerSiui7b3pb9"><path d="M 1 5 L 11 10 L 1 15 Z" style="stroke-width: 1; stroke-linecap: round; stroke-dasharray: 10000, 1;" fill="#000000"/></marker><marker viewBox="0 0 20 20" markerWidth="20" markerHeight="20" orient="auto" refX="6" refY="6" id="markerSiui7b3pbb"><circle cx="6" cy="6" r="3.5" style="stroke-width: 1; stroke-linecap: round; stroke-dasharray: 10000, 1;" fill="#ffffff" stroke="#000000"/></marker><marker viewBox="0 0 20 20" markerWidth="20" markerHeight="20" orient="auto" refX="8.5" refY="5" id="markerSiui7b3pbd"><path d="m 1 5 l 0 -3 l 7 3 l -7 3 z" style="stroke-width: 1; stroke-linecap: butt; stroke-dasharray: 10000, 1;" fill="#ffffff" stroke="#000000"/></marker><marker viewBox="0 0 20 20" markerWidth="10" markerHeight="10" orient="auto" refX="1" refY="10" id="markerSiui7b3pbf"><path d="M 11 5 L 1 10 L 11 15" style="stroke-width: 1.5; stroke-linecap: round; stroke-dasharray: 10000, 1;" fill="none" stroke="#000000"/></marker><marker viewBox="0 0 20 20" markerWidth="10" markerHeight="10" orient="auto" refX="12" refY="10" id="markerSiui7b3pbh"><path d="M 1 5 L 11 10 L 1 15" style="stroke-width: 1.5; stroke-linecap: round; stroke-dasharray: 10000, 1;" fill="none" stroke="#000000"/></marker><marker viewBox="0 0 20 20" markerWidth="10" markerHeight="10" orient="auto" refX="-1" refY="10" id="markerSiui7b3pbj"><path d="M 0 10 L 8 6 L 16 10 L 8 14 Z" style="stroke-width: 1; stroke-linecap: round; stroke-dasharray: 10000, 1;" fill="#ffffff" stroke="#000000"/></marker><marker viewBox="0 0 20 20" markerWidth="10" markerHeight="10" orient="auto" refX="-5" refY="10" id="markerSiui7b3pbl"><path d="M 1 4 L 5 16" style="stroke-width: 1; stroke-linecap: round; stroke-dasharray: 10000, 1;" fill="#000000" stroke="#000000"/></marker></defs><g class="djs-group" xmlns="http://www.w3.org/2000/svg"><g class="djs-element djs-shape" data-element-id="Participant_0tm584h" transform="matrix(1,0,0,1,322,46)" style="display: block;"><g class="djs-visual"><rect x="0" y="0" width="831" height="394" rx="0" ry="0" style="stroke-width: 2; fill-opacity: 0.95;" stroke="#000000" fill="#ffffff"></rect><polyline points="30,0 30,394 " style="stroke-width: 2;" fill="none" stroke="#000000"></polyline><text style="font-family: Arial,sans-serif; font-size: 12px;" class=" djs-label" transform="matrix(0,-1,1,0,0,394)"><tspan x="97.5" y="18.5">Criar uma nova conta para o usuário</tspan><tspan x="197" y="18.5"></tspan></text></g><rect x="0" y="0" width="831" height="394" style="stroke-opacity: 0; stroke-width: 15;" fill="none" stroke="#ffffff" class="djs-hit"></rect><rect x="-6" y="-6" width="843" height="406" style="" fill="none" class="djs-outline"></rect></g><g class="djs-children"><g class="djs-group"><g class="djs-element djs-shape" data-element-id="Lane_1x0m2vo" transform="matrix(1,0,0,1,352,46)" style="display: block;"><g class="djs-visual"><rect x="0" y="0" width="801" height="194" rx="0" ry="0" style="stroke-width: 2;" stroke="#000000" fill="none"></rect><text style="font-family: Arial,sans-serif; font-size: 12px;" class=" djs-label" transform="matrix(0,-1,1,0,0,194)"><tspan x="75.5" y="18.5">Usuário</tspan></text></g><rect x="0" y="0" width="801" height="194" style="stroke-opacity: 0; stroke-width: 15;" fill="none" stroke="#ffffff" class="djs-hit"></rect><rect x="-6" y="-6" width="813" height="206" style="" fill="none" class="djs-outline"></rect></g></g><g class="djs-group"><g class="djs-element djs-shape" data-element-id="Lane_01uxkmy" transform="matrix(1,0,0,1,352,240)" style="display: block;"><g class="djs-visual"><rect x="0" y="0" width="801" height="200" rx="0" ry="0" style="stroke-width: 2;" stroke="#000000" fill="none"></rect><text style="font-family: Arial,sans-serif; font-size: 12px;" class=" djs-label" transform="matrix(0,-1,1,0,0,200)"><tspan x="62.5" y="18.5">Interface Web</tspan><tspan x="100" y="18.5"></tspan></text></g><rect x="0" y="0" width="801" height="200" style="stroke-opacity: 0; stroke-width: 15;" fill="none" stroke="#ffffff" class="djs-hit"></rect><rect x="-6" y="-6" width="813" height="212" style="" fill="none" class="djs-outline"></rect></g></g><g class="djs-group"><g class="djs-element djs-shape" data-element-id="Task_055od25" transform="matrix(1,0,0,1,476.3846,302)" style="display: block;"><g class="djs-visual"><rect x="0" y="0" width="100" height="80" rx="10" ry="10" style="stroke-width: 2;" stroke="#000000" fill="#ffffff"></rect><text style="font-family: Arial,sans-serif; font-size: 12px;" class=" djs-label"><tspan x="7.5" y="29.5">Enviar email de</tspan><tspan x="8" y="43.5">confirmação de </tspan><tspan x="26.5" y="57.5">cadastro </tspan></text></g><rect x="0" y="0" width="100" height="80" style="stroke-opacity: 0; stroke-width: 15;" fill="none" stroke="#ffffff" class="djs-hit"></rect><rect x="-6" y="-6" width="112" height="92" style="" fill="none" class="djs-outline"></rect></g></g><g class="djs-group"><g class="djs-element djs-shape" data-element-id="Task_1jomw6a" transform="matrix(1,0,0,1,476.3846,95.7692)" style="display: block;"><g class="djs-visual"><rect x="0" y="0" width="100" height="80" rx="10" ry="10" style="stroke-width: 2;" stroke="#000000" fill="#ffffff"></rect><text style="font-family: Arial,sans-serif; font-size: 12px;" class=" djs-label"><tspan x="8.5" y="15.5">Inserir todos os</tspan><tspan x="33" y="29.5">dados </tspan><tspan x="17" y="43.5">necessários </tspan><tspan x="7.5" y="57.5">para criação de </tspan><tspan x="21.5" y="71.5">uma conta </tspan></text></g><rect x="0" y="0" width="100" height="80" style="stroke-opacity: 0; stroke-width: 15;" fill="none" stroke="#ffffff" class="djs-hit"></rect><rect x="-6" y="-6" width="112" height="92" style="" fill="none" class="djs-outline"></rect></g></g><g class="djs-group"><g class="djs-element djs-shape" data-element-id="ExclusiveGateway_0owa0i4" transform="matrix(1,0,0,1,667.9231,317)" style="display: block;"><g class="djs-visual"><polygon points="25,0,50,25,25,50,0,25" style="stroke-width: 2;" stroke="#000000" fill="#ffffff"></polygon><path d="m 16,15 7.42857142857143,9.714285714285715 -7.42857142857143,9.714285714285715 3.428571428571429,0 5.714285714285715,-7.464228571428572 5.714285714285715,7.464228571428572 3.428571428571429,0 -7.42857142857143,-9.714285714285715 7.42857142857143,-9.714285714285715 -3.428571428571429,0 -5.714285714285715,7.464228571428572 -5.714285714285715,-7.464228571428572 -3.428571428571429,0 z" style="stroke-width: 1;" fill="#000000" stroke="#000000"></path></g><rect x="0" y="0" width="50" height="50" style="stroke-opacity: 0; stroke-width: 15;" fill="none" stroke="#ffffff" class="djs-hit"></rect><rect x="-6" y="-6" width="62" height="62" style="" fill="none" class="djs-outline"></rect></g></g><g class="djs-group"><g class="djs-element djs-shape" data-element-id="Task_03zap2f" transform="matrix(1,0,0,1,814.9231,302)" style="display: block;"><g class="djs-visual"><rect x="0" y="0" width="100" height="80" rx="10" ry="10" style="stroke-width: 2;" stroke="#000000" fill="#ffffff"></rect><text style="font-family: Arial,sans-serif; font-size: 12px;" class=" djs-label"><tspan x="20" y="36.5">Armazenar </tspan><tspan x="8" y="50.5">dados da conta </tspan></text></g><rect x="0" y="0" width="100" height="80" style="stroke-opacity: 0; stroke-width: 15;" fill="none" stroke="#ffffff" class="djs-hit"></rect><rect x="-6" y="-6" width="112" height="92" style="" fill="none" class="djs-outline"></rect></g></g><g class="djs-group"><g class="djs-element djs-shape" data-element-id="DataStoreReference_1p9j032" transform="matrix(1,0,0,1,1042.9231,326)" style="display: block;"><g class="djs-visual"><path d="m  0,6.65 l  0,36.885245901639344 c  1.639344262295082,8.196721311475411 47.540983606557376,8.196721311475411  49.18032786885246,0 l  0,-36.885245901639344 c -1.639344262295082,-8.196721311475411 -47.540983606557376,-8.196721311475411 -49.18032786885246,0c  1.639344262295082,8.196721311475411 47.540983606557376,8.196721311475411  49.18032786885246,0 m  -49.18032786885246,5.737704918032787c  1.639344262295082,8.196721311475411 47.540983606557376,8.196721311475411 49.18032786885246,0m  -49.18032786885246,5.737704918032787c  1.639344262295082,8.196721311475411 47.540983606557376,8.196721311475411  49.18032786885246,0" style="stroke-width: 2;" fill="#ffffff" stroke="#000000"></path></g><rect x="0" y="0" width="50" height="50" style="stroke-opacity: 0; stroke-width: 15;" fill="none" stroke="#ffffff" class="djs-hit"></rect><rect x="-6" y="-6" width="62" height="62" style="" fill="none" class="djs-outline"></rect></g></g><g class="djs-group"><g class="djs-element djs-shape" transform="matrix(1,0,0,1,847,118)" style="display: block;" data-element-id="IntermediateThrowEvent_1dn51d5"><g class="djs-visual"><circle cx="18" cy="18" r="18" style="stroke-width: 1;" stroke="#000000" fill="#ffffff"></circle><circle cx="18" cy="18" r="15" style="stroke-width: 1;" stroke="#000000" fill="none"></circle><path d="m 8.459999999999999,11.34 l 0,12.6 l 18.900000000000002,0 l 0,-12.6 z l 9.450000000000001,5.4 l 9.450000000000001,-5.4" style="stroke-width: 1;" fill="#000000" stroke="#ffffff"></path></g><rect x="0" y="0" width="36" height="36" style="stroke-opacity: 0; stroke-width: 15;" fill="none" stroke="#ffffff" class="djs-hit"></rect><rect x="-6" y="-6" width="48" height="48" style="" fill="none" class="djs-outline"></rect></g></g><g class="djs-group"><g class="djs-element djs-shape" data-element-id="Task_0fu6f64" transform="matrix(1,0,0,1,643,96)" style="display: block;"><g class="djs-visual"><rect x="0" y="0" width="100" height="80" rx="10" ry="10" style="stroke-width: 2;" stroke="#000000" fill="#ffffff"></rect><text style="font-family: Arial,sans-serif; font-size: 12px;" class=" djs-label"><tspan x="16.5" y="15.5">Inserir email </tspan><tspan x="20" y="29.5">válido e/ou </tspan><tspan x="33" y="43.5">outras </tspan><tspan x="16.5" y="57.5">informações </tspan><tspan x="30.5" y="71.5">válidas </tspan></text></g><rect x="0" y="0" width="100" height="80" style="stroke-opacity: 0; stroke-width: 15;" fill="none" stroke="#ffffff" class="djs-hit"></rect><rect x="-6" y="-6" width="112" height="92" style="" fill="none" class="djs-outline"></rect></g></g><g class="djs-group"><g class="djs-element djs-shape" data-element-id="StartEvent_0vxrhrm" transform="matrix(1,0,0,1,388.3846,67.7692)" style="display: block;"><g class="djs-visual"><circle cx="18" cy="18" r="18" style="stroke-width: 2;" stroke="#000000" fill="#ffffff"></circle></g><rect x="0" y="0" width="36" height="36" style="stroke-opacity: 0; stroke-width: 15;" fill="none" stroke="#ffffff" class="djs-hit"></rect><rect x="-6" y="-6" width="48" height="48" style="" fill="none" class="djs-outline"></rect></g></g><g class="djs-group"><g class="djs-element djs-connection" data-element-id="SequenceFlow_0ud16tc" style="display: block;"><g class="djs-visual"><path d="m  424,86L452,86 L452,136 L476,136 " style="stroke-width: 2; stroke-linejoin: round; marker-end: url(&quot;#markerSiui7b3pb9&quot;);" fill="none" stroke="#000000"></path></g><polyline points="424,86 452,86 452,136 476,136 " style="stroke-opacity: 0; stroke-width: 15;" fill="none" stroke="#ffffff" class="djs-hit"></polyline><rect x="418" y="80" width="64" height="62" style="" fill="none" class="djs-outline"></rect></g></g><g class="djs-group"><g class="djs-element djs-connection" data-element-id="SequenceFlow_12ljybq" style="display: block;"><g class="djs-visual"><path d="m  526,176L526,302 " style="stroke-width: 2; stroke-linejoin: round; marker-end: url(&quot;#markerSiui7b3pb9&quot;);" fill="none" stroke="#000000"></path></g><polyline points="526,176 526,302 " style="stroke-opacity: 0; stroke-width: 15;" fill="none" stroke="#ffffff" class="djs-hit"></polyline><rect x="520" y="170" width="12" height="138" style="" fill="none" class="djs-outline"></rect></g></g><g class="djs-group"><g class="djs-element djs-shape" data-element-id="SequenceFlow_12ljybq_label" transform="matrix(1,0,0,1,541,229)" style="display: none;"><g class="djs-visual"><text style="font-family: Arial,sans-serif; font-size: 11px;" class=" djs-label" transform="matrix(1,0,0,1,0,0)"><tspan x="45" y="0"></tspan></text></g><rect x="0" y="0" width="0" height="0" style="stroke-opacity: 0; stroke-width: 15;" fill="none" stroke="#ffffff" class="djs-hit"></rect><rect x="-6" y="-6" width="12" height="12" style="" fill="none" class="djs-outline"></rect></g></g><g class="djs-group"><g class="djs-element djs-shape" data-element-id="ExclusiveGateway_0owa0i4_label" transform="matrix(1,0,0,1,648,367)" style="display: block;"><g class="djs-visual"><text style="font-family: Arial,sans-serif; font-size: 11px;" class=" djs-label" transform="matrix(1,0,0,1,-1,0)"><tspan x="24" y="12">Receber </tspan><tspan x="1" y="24">feedback do email </tspan></text></g><rect x="0" y="0" width="90" height="25" style="stroke-opacity: 0; stroke-width: 15;" fill="none" stroke="#ffffff" class="djs-hit"></rect><rect x="-6" y="-6" width="102" height="37" style="" fill="none" class="djs-outline"></rect></g></g><g class="djs-group"><g class="djs-element djs-connection" data-element-id="SequenceFlow_0jvshl2" style="display: block;"><g class="djs-visual"><path d="m  576,342L668,342 " style="stroke-width: 2; stroke-linejoin: round; marker-end: url(&quot;#markerSiui7b3pb9&quot;);" fill="none" stroke="#000000"></path></g><polyline points="576,342 668,342 " style="stroke-opacity: 0; stroke-width: 15;" fill="none" stroke="#ffffff" class="djs-hit"></polyline><rect x="570" y="336" width="104" height="12" style="" fill="none" class="djs-outline"></rect></g></g><g class="djs-group"><g class="djs-element djs-shape" data-element-id="SequenceFlow_0jvshl2_label" transform="matrix(1,0,0,1,622,317)" style="display: none;"><g class="djs-visual"><text style="font-family: Arial,sans-serif; font-size: 11px;" class=" djs-label" transform="matrix(1,0,0,1,0,0)"><tspan x="45" y="0"></tspan></text></g><rect x="0" y="0" width="0" height="0" style="stroke-opacity: 0; stroke-width: 15;" fill="none" stroke="#ffffff" class="djs-hit"></rect><rect x="-6" y="-6" width="12" height="12" style="" fill="none" class="djs-outline"></rect></g></g><g class="djs-group"><g class="djs-element djs-connection" data-element-id="SequenceFlow_0hnml68" style="display: block;"><g class="djs-visual"><path d="m  718,342L815,342 " style="stroke-width: 2; stroke-linejoin: round; marker-end: url(&quot;#markerSiui7b3pb9&quot;);" fill="none" stroke="#000000"></path></g><polyline points="718,342 815,342 " style="stroke-opacity: 0; stroke-width: 15;" fill="none" stroke="#ffffff" class="djs-hit"></polyline><rect x="712" y="336" width="109" height="12" style="" fill="none" class="djs-outline"></rect></g></g><g class="djs-group"><g class="djs-element djs-shape" data-element-id="SequenceFlow_0hnml68_label" transform="matrix(1,0,0,1,795,347)" style="display: block;"><g class="djs-visual"><text style="font-family: Arial,sans-serif; font-size: 11px;" class=" djs-label" transform="matrix(1,0,0,1,-36,0)"><tspan x="36" y="12">Sim</tspan></text></g><rect x="0" y="0" width="19" height="13" style="stroke-opacity: 0; stroke-width: 15;" fill="none" stroke="#ffffff" class="djs-hit"></rect><rect x="-6" y="-6" width="31" height="25" style="" fill="none" class="djs-outline"></rect></g></g><g class="djs-group"><g class="djs-element djs-shape" data-element-id="DataStoreReference_1p9j032_label" transform="matrix(1,0,0,1,1068,376)" style="display: none;"><g class="djs-visual"><text style="font-family: Arial,sans-serif; font-size: 11px;" class=" djs-label" transform="matrix(1,0,0,1,0,0)"><tspan x="45" y="0"></tspan></text></g><rect x="0" y="0" width="0" height="0" style="stroke-opacity: 0; stroke-width: 15;" fill="none" stroke="#ffffff" class="djs-hit"></rect><rect x="-6" y="-6" width="12" height="12" style="" fill="none" class="djs-outline"></rect></g></g><g class="djs-group"><g class="djs-element djs-connection" data-element-id="SequenceFlow_0n12a1y" style="display: block;"><g class="djs-visual"><path d="m  865,302L865,227 L865,227 L865,154 " style="stroke-width: 2; stroke-linejoin: round; marker-end: url(&quot;#markerSiui7b3pb9&quot;);" fill="none" stroke="#000000"></path></g><polyline points="865,302 865,227 865,227 865,154 " style="stroke-opacity: 0; stroke-width: 15;" fill="none" stroke="#ffffff" class="djs-hit"></polyline><rect x="859" y="148" width="12" height="160" style="" fill="none" class="djs-outline"></rect></g></g><g class="djs-group"><g class="djs-element djs-shape" data-element-id="SequenceFlow_0n12a1y_label" transform="matrix(1,0,0,1,880,227)" style="display: none;"><g class="djs-visual"><text style="font-family: Arial,sans-serif; font-size: 11px;" class=" djs-label" transform="matrix(1,0,0,1,0,0)"><tspan x="45" y="0"></tspan></text></g><rect x="0" y="0" width="0" height="0" style="stroke-opacity: 0; stroke-width: 15;" fill="none" stroke="#ffffff" class="djs-hit"></rect><rect x="-6" y="-6" width="12" height="12" style="" fill="none" class="djs-outline"></rect></g></g><g class="djs-group"><g class="djs-element djs-shape" data-element-id="IntermediateThrowEvent_12me59j_label" transform="matrix(1,0,0,1,821,89)" style="display: block;"><g class="djs-visual"><text style="font-family: Arial,sans-serif; font-size: 11px;" class=" djs-label" transform="matrix(1,0,0,1,-2,0)"><tspan x="2" y="12">Conta criada com</tspan><tspan x="24" y="24">sucesso </tspan></text></g><rect x="0" y="0" width="87" height="25" style="stroke-opacity: 0; stroke-width: 15;" fill="none" stroke="#ffffff" class="djs-hit"></rect><rect x="-6" y="-6" width="99" height="37" style="" fill="none" class="djs-outline"></rect></g></g><g class="djs-group"><g class="djs-element djs-connection" data-element-id="SequenceFlow_0lddm32" style="display: block;"><g class="djs-visual"><path d="m  693,317L693,176 " style="stroke-width: 2; stroke-linejoin: round; marker-end: url(&quot;#markerSiui7b3pb9&quot;);" fill="none" stroke="#000000"></path></g><polyline points="693,317 693,176 " style="stroke-opacity: 0; stroke-width: 15;" fill="none" stroke="#ffffff" class="djs-hit"></polyline><rect x="687" y="170" width="12" height="153" style="" fill="none" class="djs-outline"></rect></g></g><g class="djs-group"><g class="djs-element djs-shape" data-element-id="SequenceFlow_0lddm32_label" transform="matrix(1,0,0,1,700,189.4424)" style="display: block;"><g class="djs-visual"><text style="font-family: Arial,sans-serif; font-size: 11px;" class=" djs-label" transform="matrix(1,0,0,1,-35,0)"><tspan x="35" y="12">Não</tspan></text></g><rect x="0" y="0" width="20" height="13" style="stroke-opacity: 0; stroke-width: 15;" fill="none" stroke="#ffffff" class="djs-hit"></rect><rect x="-6" y="-6" width="32" height="25" style="" fill="none" class="djs-outline"></rect></g></g><g class="djs-group"><g class="djs-element djs-connection" data-element-id="SequenceFlow_1jzkfio" style="display: block;"><g class="djs-visual"><path d="m  643,136L576,136 " style="stroke-width: 2; stroke-linejoin: round; marker-end: url(&quot;#markerSiui7b3pb9&quot;);" fill="none" stroke="#000000"></path></g><polyline points="643,136 576,136 " style="stroke-opacity: 0; stroke-width: 15;" fill="none" stroke="#ffffff" class="djs-hit"></polyline><rect x="570" y="130" width="79" height="12" style="" fill="none" class="djs-outline"></rect></g></g><g class="djs-group"><g class="djs-element djs-shape" data-element-id="SequenceFlow_1jzkfio_label" transform="matrix(1,0,0,1,610,111)" style="display: none;"><g class="djs-visual"><text style="font-family: Arial,sans-serif; font-size: 11px;" class=" djs-label" transform="matrix(1,0,0,1,0,0)"><tspan x="45" y="0"></tspan></text></g><rect x="0" y="0" width="0" height="0" style="stroke-opacity: 0; stroke-width: 15;" fill="none" stroke="#ffffff" class="djs-hit"></rect><rect x="-6" y="-6" width="12" height="12" style="" fill="none" class="djs-outline"></rect></g></g><g class="djs-group"><g class="djs-element djs-shape" data-element-id="SequenceFlow_0ud16tc_label" transform="matrix(1,0,0,1,467,111)" style="display: none;"><g class="djs-visual"><text style="font-family: Arial,sans-serif; font-size: 11px;" class=" djs-label" transform="matrix(1,0,0,1,0,0)"><tspan x="45" y="0"></tspan></text></g><rect x="0" y="0" width="0" height="0" style="stroke-opacity: 0; stroke-width: 15;" fill="none" stroke="#ffffff" class="djs-hit"></rect><rect x="-6" y="-6" width="12" height="12" style="" fill="none" class="djs-outline"></rect></g></g><g class="djs-group"><g class="djs-element djs-shape hover" data-element-id="StartEvent_0vxrhrm_label" transform="matrix(1,0,0,1,388,103.7692)" style="display: block;"><g class="djs-visual"><text style="font-family: Arial,sans-serif; font-size: 11px;" class=" djs-label" transform="matrix(1,0,0,1,-27,0)"><tspan x="27" y="12">Sign up</tspan><tspan x="45" y="12"></tspan></text></g><rect x="0" y="0" width="37" height="13" style="stroke-opacity: 0; stroke-width: 15;" fill="none" stroke="#ffffff" class="djs-hit"></rect><rect x="-6" y="-6" width="49" height="25" style="" fill="none" class="djs-outline"></rect></g></g></g></g><g class="djs-group" xmlns="http://www.w3.org/2000/svg"><g class="djs-element djs-connection" data-element-id="DataOutputAssociation_0hc2e3n" style="display: block;"><g class="djs-visual"><polyline points="915,342 1043,342 " style="stroke-width: 2; stroke-dasharray: 0.5, 5; stroke-linecap: round; stroke-linejoin: round; marker-end: url(&quot;#markerSiui7b3pbh&quot;);" fill="none" stroke="#000000"></polyline></g><polyline points="915,342 1043,342 " style="stroke-opacity: 0; stroke-width: 15;" fill="none" stroke="#ffffff" class="djs-hit"></polyline><rect x="909" y="336" width="140" height="12" style="" fill="none" class="djs-outline"></rect></g></g></svg>